<?xml version="1.0" encoding="UTF-8" standalone="no"?>
<svg
  xml:space="preserve"
  width="22490.545"
  height="3083.6394"
  version="1.1"
  style="clip-rule:evenodd;fill-rule:evenodd;image-rendering:optimizeQuality;shape-rendering:geometricPrecision;text-rendering:geometricPrecision"
  viewBox="0 0 22490.545 3083.6394"
  id="svg1"
  sodipodi:docname="alpha.svg"
  inkscape:version="1.4 (86a8ad7, 2024-10-11)"
  xmlns:inkscape="http://www.inkscape.org/namespaces/inkscape"
  xmlns:sodipodi="http://sodipodi.sourceforge.net/DTD/sodipodi-0.dtd"
  xmlns="http://www.w3.org/2000/svg"
  xmlns:svg="http://www.w3.org/2000/svg"><defs
   id="defs1" /><sodipodi:namedview
   id="namedview1"
   pagecolor="#505050"
   bordercolor="#ffffff"
   borderopacity="1"
   inkscape:showpageshadow="0"
   inkscape:pageopacity="0"
   inkscape:pagecheckerboard="1"
   inkscape:deskcolor="#505050"
   inkscape:zoom="0.046497186"
   inkscape:cx="11247.992"
   inkscape:cy="1526.9741"
   inkscape:window-width="3840"
   inkscape:window-height="2089"
   inkscape:window-x="-8"
   inkscape:window-y="-8"
   inkscape:window-maximized="1"
   inkscape:current-layer="svg1" />
  <!-- alpha waveform -->
<path
   class="fil1 str1"
   d="m 9.2509048,1842.3193 c 12.0000002,-98 57.0000002,-773 81.0000002,-802 30.999995,-38 71.999995,749 78.999995,838 42,575 68,93 83,-135 5,-81 41,-772.99998 74,-697 41,93 70,1035 128,877 36,-97 121,-921 187,-571 19,105 68,668 92,702 37,53 82,-847 92,-967 2,-21 10,-157.99998 27,-165.99998 31,18 75,1039.99998 83,1147.99998 2,25 8,185 27,198 29,-19 73,-1064 81,-1177 3,-33 8,-165.99998 25,-189.99998 l 2,-1 c 45,55 56,1206.99998 101,1260.99998 h 2 c 44,-63 58,-1139 99,-1154 44,39 58,1151 99,1182 29,-18 71,-1080 79,-1193.99998 3,-37 5,-151 22,-182 h 3 c 29,40 72,1303.99998 83,1467.99998 1,20 6,167 22,176 30,-30 73,-1416 81,-1566.99998 2,-45 7,-253 27,-287 h 2 c 30,54 73,1469.99998 84,1653.99998 1,30 7,241 27,259 29,-20 75,-1361 83,-1504 2,-45.99998 8,-249.99998 29,-284.99998 l 2,-1 c 28,36 75,1143.99998 86,1291.99998 35,487 63,0 74,-150 5,-74 46,-834 85,-770 57,93 94,1288 182,637 6,-46 60,-592 92,-563 62,57 89,1372 158,622 8,-90 50,-784 83,-713 46,101 62,974 108,981 55,-42 78,-1480.99998 143,-773 8,85 50,775 81,722 44,-74 59,-838 104,-856 51,22 74,1146 137,651 6,-49 49,-577 81,-539 45,55 66,751 128,439 5,-26 43,-308 74,-271 45,53 57,424 121,116 48,-229 62,-189 93,28 1,8 35,321 62,261 54,-116 74,-1110.99998 140,-391 3,40 41,595 72,535 46,-91 71,-1121.99998 130,-701 6,42 52,567 85,549 42,-22 48,-354 117,-324 52,21 52,-36 84,-106 36,-81 52,70 56,98 8,54 50,519 74,525 33,-23 76,-901 85,-1001 2,-17 10,-144.99998 25,-148.99998 31,28 75,1195.99998 83,1325.99998 1,19 11,216 27,221 30,-38 74,-1376 83,-1535.99998 2,-37 6,-203 25,-232 l 2,1 c 29,56 72,1383.99998 83,1567.99998 3,37 6,169 23,199 h 2 c 27,-40 70,-1206 81,-1358 1,-21 7,-172.99998 25,-182.99998 25,17 68,902.99998 78,1015.99998 2,19 7,112 23,122 43,-16 62,-1046.99998 117,-596 6,50 34,425 58,439 43,-16 56,-817 95,-829 29,26 71,1073 80,1195 3,29 5,127 21,149 h 2 c 30,-54 72,-1452.99998 83,-1638.99998 3,-44 3,-154 20,-194 l 3,-1 c 30,45 72,1661.99998 80,1847.99998 3,54 7,261 25,305 l 2,1 c 29,-50 72,-1720.99998 81,-1920.99998 2,-27 11,-301 27,-312 28,42 72,1591.99998 81,1775.99998 1,25 8,268 27,277 27,-34 70,-1270 79,-1419 1,-25 9,-215.99998 27,-228.99998 24,16 67,859.99998 76,962.99998 2,19 8,129 25,138 41.0001,-16 59.0001,-836 112.0001,-506 4,23 39,349 61,325 40,-46 53,-652 90,-667 30,16 72,860 81,960 2,20 7,123 22,134 30,-17 74,-1085 81,-1196 2,-19.99998 10,-200.99998 27,-206.99998 29,28 73,1146.99998 81,1273.99998 2,30 8,201 27,220 28,-12 73,-1036 81,-1147 2,-23 10,-197.99998 29,-205.99998 26,19 71,782.99998 81,882.99998 33,313 61,-8 72,-105 3,-23 33,-372 72,-328 36,39 35,169 99,116 45,-39 63,81 74,127 48,207 62,155 90,-29 2,-13 42,-376 72,-323 46,81 67,732 128,437 6,-33 45,-323 79,-288 42,44 48,268 110,70 42,-134 54,-59 72,43 3,21 43,360 67,328 48,-64 61,-811 103,-814 48,43 65,1072 108,1102 30,-11 75,-953 83,-1055 2,-24 8,-162.99998 27,-174.99998 29,14 73,882.99998 81,975.99998 2,27 11,173 29,188 27.9998,-5 72.9998,-682 80.9998,-760 37,-328 67,-18 86,111 7,47 26,249 81,259 74,15 85,61 121,-206 4,-25 42,-401 67,-352 50,95 64,1024 106,1050 33,-16 76,-1119 83,-1229.99998 2,-31 8,-209 27,-229 32,13 75,1313.99998 81,1435.99998 2,40 9,282 29,309 31,-12 75,-1437 81,-1569.99998 2,-45 10,-303 29,-335 l 3,1 c 29,54 73,1499.99998 83,1686.99998 1,24 8,248 27,257 29,-39 74,-1446 83,-1612.99998 2,-39 7,-239 27,-267 h 2 c 29,50 74,1350.99998 86,1531.99998 2,34 6,181 24,207 h 3 c 28,-40 74,-1200 85,-1357 2,-25 10,-186.99998 27,-199.99998 30,14 76,1032.99998 83,1137.99998 2,26 10,219 32,231 29,-15 75,-902 83,-996 2,-25 11,-192 31,-202 30,13 76,809 86,905 1,19 12.0002,146 29.0002,149 54,-41 77,-1401.99998 144,-757 6,60 49,687 81,648 48,-60 73,-1100.99998 137,-595 5,41 49,562 81,524 49,-59 73,-890.99998 139,-486 6,35 50,443 85,413 55,-47 79,-680 164,-343 9,36 64,344 106,293 72,-87 100,-811.99998 178,-232 3,27 46,439 76,401 62,-79 90,-1405.99998 160,-550 6,80 45,770 76,792 34,-7 81,-1016 88,-1110 1,-24 12,-226.99998 31,-233.99998 33,25 79,1253.99998 88,1385.99998 2,38 7,212 27,240 h 2 c 32,-45 76,-1451.99998 85,-1618.99998 2,-39 9,-250 27,-278 h 3 c 30,59 75,1638.99998 85,1840.99998 2,45 6,236 25,273 h 2 c 31,-56 74,-1712.99998 83,-1914.99998 2,-43 7,-294 27,-325 30,15 74,1696.99998 81,1854.99998 2,54 9,349 29,390 l 2,1 c 29,-55 73,-1648 84,-1851.99998 2,-44 6,-232 24,-268 h 3 c 27,48 72,1456.99998 83,1644.99998 2,32 7,201 24,224 28,-10 72,-1136 79,-1247 3,-40 9,-224.99998 29,-254.99998 h 3 c 42,40 67,1256.99998 121,1004.99998 14,-64 53,-514 88,-499 37,17 46,271 103,60 41,-153 53,-102 72,29 5,38 47,475 72,444 45,-56 62,-929 103,-968.99998 32,4 76,977.99998 83,1072.99998 2,24 11,181 27,193 31,-12 74,-1075 81,-1180 2,-31 9,-223.99998 29,-243.99998 30,8 75,1085.99998 81,1188.99998 3,41 8,220 29,251 h 3 c 28,-29 73,-1029 83,-1152 2,-26 9,-166.99998 27,-182.99998 29,8 74,865.99998 81,951.99998 2,23 11,187 31,196 50,-29 75,-1266.99998 137,-820 7,46 55,604 86,591 47,-19 70,-715 135,-422 6,30 47,326 80,281 51,-70 65,-507 135,-168 6,29 39,250 72,166 53,-133 65,-586 135,-167 2,12 37,292 70,210 47,-117 67,-637 130,-265 3,17 40,302 70,264 48,-61 66,-587 130,-263 3,14 41,285 72,235 48,-76 64,-547 130,-205 2,10 38,263 70,196 49,-102 62,-513 128,-184 5,22 37,244 70,158 49,-128 59,-480 123,-122 6,29 36,267 68,153 19,-71 58,-462 88,-415 53,85 74,1055 139,356 5,-52 38,-524 65,-535 45,23 62,895 108,935 31,-2 76,-782 83,-861 2,-20 11,-155 29,-161 30,20 75,789 86,890 34,331 60,-47 67,-132 6,-65 46,-723 81,-663 46,81 74,981 139,706 19,-79 73,-549 122,-532 85,31 118,1082 195,314 6,-52 47,-598 77,-542 50,93 66,1080 112,1091 32,-26 78,-992 88,-1113 1,-21 9,-160.99998 27,-169.99998 30,19 76,1030.99998 85,1149.99998 3,33 9,171 27,195 h 2 c 29,-30 75,-973 86,-1100 2,-24 7,-149.99998 27,-162.99998 28,10 74,789.99998 83,880.99998 36,359 64,-1 76,-119 2,-16 38,-480 79,-422 40,57 30,225 132,363 58,77 71,51 97,-83 4,-23 47,-332 72,-310 58,54 79,1153 144,388 5,-62 34,-541 61,-564 29,3 71,816 78,894 3,27 7,123 23,143 h 2 c 47,-57 60,-1310.99998 101,-1346.99998 31,23 72,1366.99998 79,1502.99998 2,45 7,241 24,276 h 3 c 30,-60 72,-1802.99998 83,-2023.99998 1,-25 7,-238 22,-250 31,50 73,2097.99998 81,2324.99998 1,36 8,385 27,402 30,-59 73,-2316.99998 81,-2572.99998 2,-50 7,-415.000004 27,-448.0000041 30,37.0000001 72,2292.9999841 79,2520.9999841 2,78 8,484 29,544 h 2 c 28,-78 71,-2160.99998 81,-2429.99998 2,-41 7,-361 27,-385 27,34 71,1733.99998 79,1923.99998 1,39 8,335 29,360 25,-18 68,-1179 76,-1304 2,-27 11,-226 30,-239.99998 37,15.99998 58,918.99998 110,711.99998 9,-36 39,-272 63,-220 41,91 64,791 112,187 5,-63 41,-730.99998 67,-734.99998 31,31 73,1064.99998 81,1187.99998 3,32 6,171 25,193 h 2 c 47,-75 61,-1433.99998 106,-1497.99998 h 2 c 27,35 71,1042.99998 83,1188.99998 2,14 10,139 25,140 44,-45 66,-1188.99998 124,-887 9,47 48,430 81,401 42,-37 47,-301 107,-9 43,205 57,115 77,-36 4,-33 43,-453 69,-417 51,69 74,1160 135,610 5,-44 48,-613 81,-576 38,42 58,540 117,458 38,-53 33,-104 86,-31 40,56 54,-78 58,-103 5,-31 48,-418 70,-399 45,39 63,1006 105,1057 h 2 c 32,-37 75,-1152 84,-1287.99998 2,-36 6,-180 24,-208 h 3 c 30,46 73,1347.99998 83,1510.99998 1,25 10,232 27,243 29,-29 74,-1371 83,-1519.99998 1,-25 9,-257 29,-266 29,31 74,1202.99998 83,1340.99998 2,28 9,238 32,251 28,-18 76,-908 85,-1011 42,-488.99998 77,-92 97,106 7,75 63,782 99,718 56,-101 74,-1266.99998 119,-1300.99998 34,17 78,1309.99998 85,1433.99998 2,34 11,275 29,296 32,-13 77,-1538.99998 84,-1680.99998 1,-34 9,-313 29,-331 30,31 73,1553.99998 81,1715.99998 1,35 10,316 29,335 29,-20 71,-1375 79,-1514 2,-44 8,-278.99998 29,-310.99998 h 2 c 45,69 58,1356.99998 106,1364.99998 40,-40 60,-987 114,-723 6,27 40,305 63,271 40,-57 64,-735.99998 110,-188 l 45,609"
   id="path14"
   style="clip-rule:evenodd;fill:none;fill-rule:evenodd;stroke:#a4863d;stroke-width:18.64;stroke-linejoin:round;stroke-opacity:1;image-rendering:optimizeQuality;shape-rendering:geometricPrecision;text-rendering:geometricPrecision" /></svg>