<svg className="absolute top-0 left-0 w-full h-full pointer-events-none z-[-1]" preserveAspectRatio="xMidYMid slice" version="1.1" viewBox="0 0 22490 2824.6" xmlns="http://www.w3.org/2000/svg">
  <path class="fil1 str1" d="m9.2525 1147.3c15 124 17 558 39 627h2c24-77 13-334 38-385l2 1c27 71 22 429 47 473h3c29-63 27-517 56-574l2-1c25 38 31 510 65 439 32-65 14-32 36-45 32-18 27-296 52-314 26 30 15 295 40 358l3-1c25-70 15-388 38-416 24 58 20 768 45 860 25-38 22-1130 49-1252 23 20 22 940 52 991 13-11 18-186 40-164l7 4c33-28 26-528 50-617l2 1c27 114 18 807 45 924l2-2c23-125 21-910 45-935 26 97 22 856 47 883 18-45 25-596 56-586 32 11 21-88 41-99 30 36 30 759 54 775 27-87 23-836 49-907 22 20 18 450 43 528l2 1c24-52 12-258 36-316h2c26 68 22 474 45 521 23-16 24-524 52-553 21 13 13 136 36 155 17-4 13-69 29-77 29 26 26 475 52 558l2 1c30-72 30-911 56-953 30 57 26 986 56 1047 28-47 30-980 57-1004 28 72 29 920 58 948 32-51 36-879 67-923 31 25 32 833 63 913h3c29-74 27-652 60-677 25 6 68 311 86 322 20-6 15-85 33-98 24 12 23 265 43 280 29-51 25-753 52-803 28 52 26 885 54 924 26-34 16-391 58-423 33-24 25-168 50-181 27 15 49 599 105 234 3-16 10-90 23-96 24 16 13 147 36 177 25-15 21-455 45-504 24 39 22 844 47 915 22-51 18-798 43-926l2 1c22 132 18 862 40 895 26-128 23-1226 45-1287 27 124 25 1562 50 1623 26-111 23-1257 51-1279 25 70 17 443 48 468 23-2 17-86 49 127 3 17 3 51 16 63 29-10 29-434 56-485l2 1c29 74 27 617 50 651 24-49 21-740 47-830 23 19 22 794 47 821 24-70 15-463 38-526 19 18 21 384 36 449l2 1c27-102 18-728 43-829 24 24 20 905 47 1004 21-16 17-543 43-601 19 13 13 219 34 258 22-12 18-355 42-394 26 17 16 327 54 342 32 12 25 266 48 309 28-22 26-935 53-1006 26 48 26 1088 54 1172 25-27 26-870 54-915 28 44 28 773 52 789 29-90 26-983 52-1050 27 56 26 1270 56 1340 26-53 28-1149 63-1248l2-1c33 65 37 892 68 942 24-13 28-535 58-556 24 14 21 214 65 107 41-99 46-73 59 60 5 61 19 361 36 393 28-17 26-825 56-908l2 1c29 103 15 583 63 706 16 41 24 195 38 211 31-37 29-1111 56-1202 29 62 29 1497 54 1529 27-126 22-1097 47-1201 22 27 21 840 45 878 27-93 24-1038 48-1067 23 103 28 1099 45 1331l4 39 2 2c27-137 25-1170 52-1216 25 56 24 670 49 702 25-30 21-367 45-393 25 25 25 511 50 551 26-35 23-738 49-841l2 1c27 121 23 827 45 899 22-36 18-706 43-803 21 19 20 720 43 750 23-81 14-581 38-703h2c25 127 16 686 38 778 25-46 21-1127 45-1178 26 135 24 1422 48 1498 24-89 21-1070 47-1114 20 45 9 241 31 294l3-1c22-66 8-186 29-257l2-1c27 79 24 788 47 840 23-45 20-703 47-785h3c13 36 17 237 33 247 24-37 14-240 36-275 27 28 24 679 52 777l2 1c29-86 28-861 56-884 27 47 24 477 52 491 19-16 9-79 29-91 25 14 18 197 41 232l2-1c29-68 26-558 52-601 25 17 29 646 60 677 29-19 38-601 63-615 27 43 22 454 50 502h2c19-44 16-210 36-231 20 12 11 132 31 154 26-25 21-420 43-496h2c27 96 22 702 45 761 21-27 16-461 41-525l2 1c11 36 15 218 29 229 23-54 16-484 38-555 25 42 20 997 45 1144 24-22 22-1134 45-1294h3c24 162 18 881 40 964 19-30 13-488 36-566 23 27 16 578 38 602 27-111 17-909 43-1016 23 44 20 1034 47 1145l2-1c16-74 17-442 41-470l11 8c30-28 25-786 50-850 28 100 23 1600 49 1897l2 20 2 2c19-135 34-1437 41-1695 1-26 2-262 16-275 28 117 27 1157 65 1172 20-21 24-228 56-219 26 7 30-130 31-146 5-61 17-370 34-405 28 19 26 751 56 826h3c25-57 17-315 60-438 9-24 32-167 45-172 32 21 46 509 74 533 29-23 29-610 54-649 25 42 18 536 43 644l2 1c25-93 16-629 41-734 23 20 19 914 45 1021 23-42 19-1011 45-1158h2c25 159 20 918 43 1008 21-25 19-736 45-785 24 44 17 521 47 571h2c20-31 63-403 72-464l9-34c27 14 28 648 54 679 29-54 29-843 56-884 29 44 30 993 58 1095l3-1c29-147 26-1239 51-1337 24 45 23 1193 50 1276 21-51 17-738 43-818 19 23 15 462 38 525 22-28 21-690 45-730 25 62 22 853 51 935h3c29-98 31-813 58-853 26 33 24 689 49 752 25-41 22-834 45-877 27 107 22 1153 45 1236 23-88 20-1288 45-1429 22 42 18 1062 43 1166 23-58 16-748 38-903l2-1c22 132 22 833 36 1052l5 42c23-20 21-1241 47-1292 25 105 21 941 45 971 23-71 15-451 38-509 21 16 22 505 45 529 29-53 32-836 59-868 29 50 29 988 58 1110l2 1c29-101 26-935 54-1019h3c26 73 17 523 80 594 24 27 42-296 54-322l3-1c23 34 14 230 38 284h2c25-50 17-343 41-387 23 21 22 588 47 620 23-49 20-649 47-742h2c27 90 24 702 50 720 26-58 20-537 49-607l2-1c18 30 29 408 61 384 46-34 41-41 49-108 6-46 14-201 30-233h2c27 63 17 438 43 544l2 1c26-85 23-789 45-810 26 107 18 951 45 1068 22-26 18-864 45-959 19 20 17 420 36 494l2 1c20-74 16-459 36-480 27 91 23 947 47 966 25-96 17-663 56-881 19-104 18-286 36-360h2c33 128 30 1833 54 1873 20-144 32-1590 36-1849 2-88 2-388 16-466 26 74 24 1437 54 1487 18-26 17-327 72-393 12-14 23 35 31 40 28-15 24-386 48-420 23 37 20 613 45 672 20-29 13-393 35-466 23 23 17 650 41 749 25-44 22-1371 49-1479 29.001 73 20 1291 63.001 1361l27 66c35-40 28-1139 56-1311l3-1c24 120 19 775 42 823 13-17 13-100 21-128h2c28 107 24 1209 45 1272 23-154 32-2270 45-2671l7-92c15 158 15 637 18 812l22 1462 9 167c19-35 14-713 40-808h3c16 50 6 107 22 157l2 1c28-78 22-717 48-781 11 11 43 677 51 769 3 25 17 206 32 217 30-32 27-704 56-800l2-1c21 48 21 454 56 447 23-4 20 49 34 58 22-12 29-348 43-400l2-1c27 80 23 786 45 820 25-92 21-1102 47-1227 24 26 22 1086 52 1137 25-44 28-630 70-678h2c28 34 25 449 49 493 22-26 19-491 43-549 20 20 17 354 36 419l2-1c22-86 14-420 34-459 23 78 19 1037 43 1181 26-62 22-1705 44-1974l3-19c19 30 30 1611 42 1825l5 43c22-60 19-897 40-935 23 83 11 437 34 526 22-19 19-728 45-770 24 45 13 351 45 362 25 8 36 514 38 559 2 55 1 148 14 200 25-38 21-1233 47-1396 22 21 18 1032 43 1120 20-65 14-772 38-915l2 2c18 138 26 906 34 1119l9 133c24-46 24-1221 49-1253 24 74 20 569 47 610h3c17-20 46-186 63-207h2c28 40 25 494 47 591l2 2c27-92 22-986 50-1100l2 2c26 132 17 686 45 748h2c9-20 7-68 20-81 22 26 25 464 41 545l2 2c29-119 27-1349 52-1413 26 85 24 1107 51 1149 19-29 13-195 32-205 22 35 10 181 31 215 27-33 25-870 52-947 24 36 22 875 49 952 21-22 18-462 41-510 24 29 22 531 43 548 26-77 24-775 49-812 24 34 15 336 50 363 36 29 28 648 53 672 28-106 26-1249 50-1307 23 87 17 926 43 1045 21-22 17-644 38-746 23 21 19 1046 45 1178 24-41 23-1461 51-1542 29 75 17 973 68 1053 29 45 30 20 38-59 6-59 29-555 47-565l54 375c6 37 18 177 34 200h2c28-36 25-365 50-382 21 20 11 138 33 164 22-8 18-242 41-262 27 35 27 571 51 594 28-41 27-620 59-674h2c30 55 27 529 56 590h3c26-63 23-476 47-507 23 24 18 340 42 365 19-17 13-142 32-174h2c23 50 13 225 34 268 25-26 24-672 45-778h2c28 136 22 1090 47 1198 23-31 19-878 48-999l2-1c18 53 15 318 36 337 20-28 8-139 29-169 25 20 21 453 45 530l2 1c25-60 20-421 45-444 13 9 11 64 25 67 24-32 17-238 38-296l2-1c30 68 24 704 52 768 26-19 29-679 61-690 28 27 28 292 56 293 21-20 16-132 36-139 27 32 23 437 47 471 28-45 26-795 52-811 24 66 20 508 47 551h2l16-23c25 18 13 191 36 227 26-30 22-761 47-867 24 24 22 916 45 1052h2c24-132 19-794 41-858 21 48 14 505 36 616h2c24-120 13-596 36-700 23 39 18 1058 42 1198 25-63 21-1387 43-1621l2-17c23 28 20 1385 45 1460 22-99 12-698 36-854l3 1c18 117 15 773 36 803 23-140 21-1125 38-1390l4-35c24 148 20 1420 41 1737l4 32c18-133 27-1193 34-1432 1-37-2-113 9-148 24 140 16 1093 38 1355l2 20 3 2c18-135 25-963 33-1184 1-30-2-88 9-117 24 106 20 962 43 988 23-89 15-501 36-556 20 33 16 490 38 542 22-43 18-636 43-732h2c21 88 17 526 41 554 21-38 14-266 33-290 24 38 20 444 41 473 26-58 23-727 47-769 24 45 19 564 47 621h2c18-35 11-132 32-156l2 1c17 21 8 56 25 76h2c26-44 22-406 47-459l3 1c28 85 27 656 53 698 28-17 30-619 63-684l3-1c30 40 30 516 60 535l45-146c37-84 27-362 52-423l2 1c28 90 22 759 47 846 27-37 19-868 45-1013h3c25 157 21 1030 42 1101 23-77 18-1039 43-1222h2c26 183 21 1210 43 1260 25-130 21-1213 43-1254 21 131 22 1095 38 1349l4 42c20-56 29-1287 41-1488l4-48c23 33 19 1228 45 1362 23-39 21-947 43-976 24 108 19 814 40 852 23-93 18-911 43-1042 24 20 24 1146 47 1165 26-140 22-1098 45-1141 24 98 19 1012 45 1153l2-1c27-162 23-1074 48-1123 25 67 17 694 47 772l2 1c18-37 8-124 29-152h3c15 24 9 58 22 83l2 1c28-51 26-616 47-645 25 70 22 897 48 1002 23-22 20-864 47-938 23 32 21 598 45 611 22-48 10-208 33-255h3c14 26 15 164 31 171 24-39 16-333 41-382 24 18 19 459 45 534h2c24-60 19-400 45-418 17 16 18 173 47 139 24-28 29 63 43 76 15-1 25-141 36-162h2c24 37 19 291 38 313 24-46 20-601 43-654 26 65 21 973 45 1026 22-91 18-1009 42-1167l3 1c22 158 17 979 40 1024 23-103 14-801 38-942 23 24 19 1093 43 1203 23-78 20-1390 45-1513 22 71 19 1231 43 1443l2 15h2c19-136 25-822 36-1038 1-20-1-66 9-83 25 75 23 779 50 814 27-35 35-660 63-679 26 34 22 503 49 591l2 1c24-53 15-345 38-394 22 20 19 449 41 484 27-65 25-931 49-948 24 88 27 1068 68 1021 43-49 58-789 63-883 2-42 1-154 15-191 15 14 47 955 57 1083 2 34 4 130 20 158h2c33-72 31-1207 58-1330 24 36 20 1065 45 1202 21-28 16-788 39-901 24 67 16 1117 40 1325 24-26 20-1786 45-2014 20 57 28 1798 40 2059l5 51c21-117 24-1436 38-1724l5-52c21 58 16 1180 42 1355h3c22-123 12-564 38-633h2l14 43 2 1c23-47 17-508 38-579 28 77 19 1334 45 1576h2c16-161 18-681 20-863l18-955 5-69h2c16 159 17 635 20 813 1 59 7 765 23 781 17-133 22-819 31-1025l9-98c19 100 16 655 36 682 22-85 15-510 34-550 24 87 20 916 40 954 27-146 22-1415 45-1441 21 146 24 1101 39 1368l6 62c24-111 20-929 43-1003 21 37 18 611 43 665 24-27 24-563 51-579 31 35 39 592 66 620 27-29 25-608 54-677l2 1c27 78 22 527 49 588h3c26-52 25-421 49-446 26 24 28 499 49 511 25-60 22-699 48-801l2 1c27 128 23 936 47 1022 23-24 21-798 49-842 13 14 22 249 43 228 17-16 18 24 20 45 12 99 16 380 34 446h2c28-99 24-853 48-875 24 84 20 677 45 715 20-25 11-173 31-218h2c15 20 10 91 25 103 24-34 20-521 43-578 26 53 24 1009 47 1029 26-128 18-952 45-1080l2 1c25 122 20 691 45 749l2-1c10-26 22-209 47-306 9-33 16-110 30-135h2c29 53 26 644 47 666 23-87 30-1037 43-1235l4-42 3 1c19 146 29 1153 35 1382 2 64 1 216 14 275 26-54 27-1393 56-1421 14 34 50 969 95 811 23-81 35-475 60-502 26 11 27 382 52 399 23-27 17-273 40-308 24 18 20 412 45 471l3-1c22-66 22-503 49-515 12 9 8 31 20 40 19-5 12-92 29-102 29 47 27 936 52 1015 25-64 24-1319 50-1529l2-15 2-1c28 142 23 1171 61 1221l2 1c50-51 45-810 74-904l2 1c28 109 20 733 48 833h2c24-78 20-481 45-533l2-1 52 293c4 22 7 68 20 86l2-1c31-55 28-624 50-640 27 90 24 923 47 961 25-84 21-810 45-859 22 42 15 397 38 433 20-22 11-191 31-221 24 25 20 389 41 406 24-52 16-441 43-505h2c12 25 19 192 36 195l13-18 3 1c25 37 21 348 40 425l2 1c24-86 18-756 43-913l2-1c25 130 15 836 41 976l2-1c25-162 12-664 36-794 19 18 23 788 38 898l2 1c19-133 25-950 34-1168l7-94c21 46 18 1234 42 1328 21-86 15-906 39-1049 21 29 18 851 38 988 22-18 18-1154 43-1223 22 113 15 1021 40 1171 20-17 16-744 38-798 23 89 13 653 36 814h2c21-138 25-985 36-1220l7-70c22 114 25 1170 41 1422l4 45h2c25-163 18-957 45-1016 20 28 16 295 39 314 12-6 6-35 20-39 24 24 19 235 38 287h2c26-58 23-526 45-542 24 57 18 513 45 599l2 1c26-54 22-438 50-468l47 162c7 20 33 152 45 155 26-20 23-246 49-283h3c25 33 17 229 42 270h3c26-46 23-368 45-383 27 51 26 643 49 672 24-52 22-726 49-830l3-1c25 70 21 541 49 567 16-7 7-49 25-54 18 15 12 85 29 107l2-1 9-48" style="clip-rule:evenodd;fill:none;image-rendering:optimizeQuality;shape-rendering:geometricPrecision;stroke-linejoin:round;stroke-width:18.64;stroke:#a4863d"/>
</svg>
