<?xml version="1.0" encoding="UTF-8" standalone="no"?>
<svg
  xml:space="preserve"
  width="22488.1"
  height="3034.9451"
  version="1.1"
  style="clip-rule:evenodd;fill-rule:evenodd;image-rendering:optimizeQuality;shape-rendering:geometricPrecision;text-rendering:geometricPrecision"
  viewBox="0 0 22488.1 3034.9451"
  id="svg1"
  sodipodi:docname="delta.svg"
  inkscape:version="1.4 (86a8ad7, 2024-10-11)"
  xmlns:inkscape="http://www.inkscape.org/namespaces/inkscape"
  xmlns:sodipodi="http://sodipodi.sourceforge.net/DTD/sodipodi-0.dtd"
  xmlns="http://www.w3.org/2000/svg"
  xmlns:svg="http://www.w3.org/2000/svg"><defs
   id="defs1" /><sodipodi:namedview
   id="namedview1"
   pagecolor="#505050"
   bordercolor="#ffffff"
   borderopacity="1"
   inkscape:showpageshadow="0"
   inkscape:pageopacity="0"
   inkscape:pagecheckerboard="1"
   inkscape:deskcolor="#505050"
   inkscape:zoom="0.046497186"
   inkscape:cx="11247.992"
   inkscape:cy="1505.4674"
   inkscape:window-width="3840"
   inkscape:window-height="2089"
   inkscape:window-x="-8"
   inkscape:window-y="-8"
   inkscape:window-maximized="1"
   inkscape:current-layer="svg1" />
  <!-- delta waveform -->
  
<path
   class="fil1 str1"
   d="m 7.9666194,2446.3199 c 50.9999996,84 96.0000006,-166 101.0000006,-190 50,-230 141,-997 221,-1128 82,-136.00003 177,473 182,500 10,54 93,586 173,558 83,-31 180,-731 200,-846 9,-52 94,-639.00003 180.00008,-589.00003 61,36 102,243 119,314.00003 37,162 160,850 263,940 43,39 54,34 108,24 28.9999,-5 78.9999,-46 118.9999,-59 55,-19 148,-72 182,-120 106,-151 160,-377 211,-554 12,-43 118,-482.00003 216,-358.00003 91,116.00003 195,679.00003 245,857.00003 12,44 85,340 173,238 84,-97 150,-393 215,-527 25,-50 68,-164 142,-126 66,34 109,137 164,191 22,21 52,48 86,36 90,-33 146,-203 211,-280 53,-63 80,-53 126,11 89,125 200,801 296,830 40,12 57,-28 74,-67 111,-243 219,-1272.00003 349,-1105.00003 69,89.00003 165,611.00003 209,769.00003 8,30 54,218 112,180 81,-51 175,-599 202,-715 10,-40 64,-328.00003 131,-293.00003 85,44 184,739.00003 207,865.00003 12,68 83,542 166,540 45,-1 90,-154 99,-187 45,-174 144,-646 209,-773 22,-42 60,-118 119,-90 45,21 81,58 124,83 36,21 50,27 92,15 43,-12 94,-78 146,-111 115,-74 181,114 215,193 37,86 146,445 239,462 82,15 171,-191 206,-252 48,-81 88,-146 160,-208 61,-52 132,-80 193,-127 22,-17 74,-41 101,-40 61,3 84,40 113,89 99,169 160,545 243,754 27,69 74,168 130,53 83,-170 190,-931 243,-1186 7,-36.00003 80,-430.00003 164,-287.00003 72,123 169,607.00003 219.9998,784.00003 28,98 60,212 135,284 42,40 74,46 123,72 86,44 127,114 180,193 30,45 90,124 144,65 94,-103 182,-552 223,-708 20,-78 71,-297 141,-339 67,-41 152,141 193,191 22,27 60,69 99,51 87,-40 137,-178 194,-181 102,-5 168.9996,419 183.9996,496 32,163 121,772 198,871 87,113 168,-487 173,-519 23,-146 128,-970 215.001,-1032.00003 56,-40 107,169.00003 115,198.00003 29,103 126,600 202,639 66,34 124,-201 135,-239 19,-62 110,-480 182,-468 86,13 168,489 184,571 15,69 104,572 185,567 73,-5 129,-281 144,-344 41,-172 146,-755 251,-865 63,-65.00003 113,9 151,62 148,208 302,828 384,1091 13,43 78,265 142,248 108,-29 201,-756 220,-876 15,-99 132,-1027.00003 236,-1012.00003 88,13 193,695.00003 211,791.00003 31,160 99,590 203,706 59,67 114,-3 170,-32 44,-23 34,-30 95,-37 l 112,-29 c 85,-53 114,-137 151,-227 55,-135 174,-622 263,-661 80,-36 171,255 191,307 22,59 81,254 157,254 84,0 148,-208 229,-164 91,49 175,484 202,596 9,36 83,386 151,323 92,-86 189,-927 214,-1091 6,-45 90,-695.00003 170,-628.00003 80,65 170,739.00003 194,877.00003 16,93 80,549 164,582 71,29 162,-350 179,-403 20,-60 91,-353 196,-294 43,24 120,157 162,213 37,50 63,56 105,66 30,8 89,-30 111,-49 l 101,-87 245,-192 c 62,-39 102,-23 144,37 132,192 246,1142 346,1036 86,-91 143,-705 159,-853 23,-207 133,-1445.00003 214,-1552.000032 l 15,-10 c 83,38 148,874.000002 158,986.000002 44,487.00003 86,1093.00003 153,1568.00003 2,19 53,443 121,308 69,-137 157,-864 202,-1079 7,-33 62,-357 140,-283 126,122 181,604 325,-292 26,-157 127,-967.00003 200,-1048.00003 45,-49 76,105 81,129 84,364 176,1467.00003 227,1912.00003 15,124 80,759 167,812 66,40 128,-269 137,-310 92,-412 162,-903 240,-1327 28,-151 163,-974.00003 283,-1034.00003 126,-63 233,723.00003 245,803.00003 63,397 120,873 200,1257 10,46 82,418 162,365 112,-73 211,-822 234,-978 28,-185 149,-1123.00003 249,-1221.00003 75,-73 130,195 140,233 56,219.00003 183,1093.00003 292,1203.00003 87,89 177,-207 195,-255 28,-73 100,-291 176,-320 68,-26 131,78 159,128"
   id="path12"
   style="clip-rule:evenodd;fill:none;fill-rule:evenodd;stroke:#a4863d;stroke-width:18.64;stroke-linejoin:round;stroke-opacity:1;image-rendering:optimizeQuality;shape-rendering:geometricPrecision;text-rendering:geometricPrecision" /></svg>