<svg className="absolute top-0 left-0 w-full h-full pointer-events-none z-[-1]" preserveAspectRatio="xMidYMid slice" version="1.1" viewBox="0 0 22491 3118.6" xmlns="http://www.w3.org/2000/svg">
  <path class="fil1 str1" d="m9.3139 1930.3 7 193c12-185 9-393 11-579 3-169-1-401 12-566 12 119 13 636 15 790l7 230c16-27 6-560 22-661 18 145 5 388 21 547 14-64 15-643 22-780l2-2c21 339 4 680 23 1020 17-27 7-825 25-958 16 163 6 472 20 666l2-2c5-78 8-510 20-537 20 222 5 487 23 714l2 1c14-169 14-496 18-678 2-90-1-218 11-305 21 119 11 1045 27 1275l3 21c12-148 9-405 11-559 1-71 3-836 15-855 17 321 4 643 21 964l2 32 2 1c4-43 7-275 18-292l11 95 3 1c10-69 8-353 22-382 10 56 4 233 25 267 20 34 8 353 25 425 13-139 13-607 15-768l9-393c17 70 13 1154 27 1377 18-29 10-955 36-1114 20 21 16 794 32 907 17-85 6-561 29-588 11 0 17-123 20-140 20 28 12 764 27 780 9-153 8-826 23-889 15 220 6 442 18 662 11-14 16-757 20-853 18 46 7 1480 24 1708l9-772 12-1660 4-196 9 905 11 1889 5 238c11-277 7-555 9-832l11-1699 5-193 9 670 11 1136 2 61c13-51 13-771 20-919 11 13 12 406 18 469 18-137 4-572 21-662 13 208 10 509 13 725 1 43-1 290 9 321 13-290 10-581 14-870l9-429c11 144 9 452 11 606l9 682 4 110c13-133 12-570 14-723 1-80 1-579 13-633 13 205 11 463 14 671l13 524c9-143 10-855 25-908 10 99 7 506 22 551 18-120 2-243 21-362 14 18 18 417 27 486l2 1c19-142 16-737 27-947l2-2c13 263 11 618 14 887 2 229-1 513 11 738 11-161 7-392 9-556l11-1339 4-197c11 146 8 428 9 581l12 1306 4 171c11-150 8-347 9-500l11-1017 5-129c13 106 16 901 20 1081l7 161c14-131 15-717 18-884 1-67-2-235 9-296 12 204 9 411 11 615 1 62 3 728 14 745l22-1354c12 341 4 682 18 1023 12-59 14-781 18-923l2 1c14 481 9 962 16 1443l4 143c12-443 9-887 12-1330l6-1023 5-209c12 498 9 997 11 1495 3 496 0 993 11 1489 10-146 6-295 7-442l14-1899 4-139c15 392 7 785 18 1177l5 89 2-1 7-51 2 1 11 156 2-1c14-214 11-510 14-730 2-140-2-286 9-426l9 554 11 1103 2 62c12-118 10-675 12-818 0-108 1-990 13-1044 12 387 10 774 14 1160l8 564c13-95 16-1074 21-1271l4-118c17 85 10 758 25 944 14-14 7-466 25-498l15 186h3c9-57 3-117 15-174 15 45 11 284 21 362 13-47 13-432 20-525l2 1c10 154 6 577 20 674 14-155 12-509 16-686l5-122c14 18 8 684 22 788 8-85 7-554 20-579 6 80 6 422 18 459 9-118 7-600 20-652 7 103 10 873 23 886 15-273 2-550 20-822 11 24 14 477 20 558 12-21 15-444 21-516l2 2c17 266 5 533 20 799l2 29c17-62 15-1028 27-1216 17 68 15 1168 27 1383 18-47 11-1082 29-1109l34 606c1 46 3 304 14 332 13-165 13-566 15-747 2-97 0-334 12-423 13 136 15 661 18 829l11 383 2 2c15-163 15-575 18-754 2-87 0-310 11-388 13 145 11 476 14 635 0 39 0 411 11 427 10-189 6-762 20-874 13 196 10 479 14 684 1 65-3 133 6 198 20-382 2-766 21-1148 12 118 11 707 13 859 2 118-2 333 9 445 19-366 1-779 20-1144 15 116 9 666 18 850l3 29c16-164 2-642 20-754 9 123 6 646 20 699 14-190 3-382 18-572 17 50 3 445 20 497 9-112 7-535 21-589 18 211 4 437 20 651l2-1c10-132 5-388 20-492 17 48 3 207 20 261 17-51 6-209 23-241 18 60 16 410 27 513h2c14-162 13-469 16-640l9-315c17 121 10 1005 25 1251 17-91 7-848 22-1041l2-19c11 71 5 365 21 398l9-61c17 32 9 482 22 572 13-157 11-558 13-731 1-46 1-495 12-514 12 322 10 645 13 967l9 529c15-24 9-1295 27-1344 14 218 11 476 16 699 1 66-1 224 11 286 21-93 11-615 34-728 21 38 13 714 34 754 19-148 13-746 27-961l2-27c17 46 10 1134 29 1243 13-178 11-485 13-671 2-120 1-502 14-606 13 119 16 674 20 840l9 155c9-68 15-562 32-577l42 342 5 32 2 1c19-107 8-320 23-445 15 36 5 473 22 542 19-220 4-522 20-751 14 108 15 896 18 1071l5 148c12-131 10-579 11-727 1-85 2-917 13-947 15 459 11 946 16 1409l7 327c12-167 9-487 11-664 2-191-1-434 11-622 18 130 2 510 21 626 13-109 6-219 15-328l3 1c12 147 4 296 18 444 14-15 5-382 22-415 7 38 1 90 14 125 14-68 6-153 15-224 16 57 13 635 23 767 15-104 11-872 22-1082 17 74 8 862 23 888l15-585c11 14 14 771 21 872 11-175 7-371 9-547l9-979 4-160c12 364 9 791 11 1160l9 1128 3 63c11-278 7-558 9-836l9-1397 4-253c11 250 7 540 9 792l9 1235 5 155c14-566 8-1133 15-1699l5-197 9 778 11 1200c12-102 12-1228 13-1400l9-882 7 420 14 1842 2 98c11-31 17-1620 20-1819l5-116c5 117 9 1038 22 1056 4-44 3-185 14-214 10 91 2 238 15 314 13-154 12-532 14-701l9-432c12 157 9 553 11 724l9 859 5 119c12-274 8-548 11-821l9-826 4-113c12 201 9 422 12 624 1 85 2 729 15 779 14-163 14-497 18-676 1-48 1-275 14-313 19 129 11 628 27 820h2c10-129 9-650 25-711 20 124 0 295 29 419 6 28 4 78 16 101 17-77 14-568 24-705 17 44 9 1100 27 1172 13-230 11-534 14-769 1-103 1-562 13-643 13 162 12 481 14 653 1 79 5 867 18 893 11-206 9-414 11-620l13-1180 3-63c15 26 18 1905 27 2147 13-91 17-1525 22-1773l5-121c12 104 16 760 22 943l20 363c21-26 14-1191 30-1350 12 192 9 475 11 672 3 326 0 652 13 977l3-1c16-409 8-819 20-1228l4-90c19 72 9 676 36 721 17-14 19-357 29-411 18 50 5 350 23 418 18-139 5-541 22-633 13 148 12 470 14 630 1 93-1 393 11 473 12-201 9-428 11-631 4-302 1-606 14-909 19 54 12 1631 29 1649 14-271 12-596 16-872 0-41 4-540 15-555 15 154 16 576 18 745 3 167 1 420 14 580 19-107 9-1093 27-1338 18 124 6 734 22 925l3 17c14-66 4-147 15-216 13 25 5 83 14 114 20-135 4-584 22-741 13 158 10 402 12 565 2 162-1 442 11 595 12-170 9-445 11-623l9-511c12 36 15 938 20 1081 18-70 6-1161 23-1381 12 286 9 614 11 903 2 284-1 628 11 907 11-162 8-397 9-563l11-1178 5-133c12 184 9 442 11 630 2 126 2 684 16 786 21-113 14-791 36-981 16 41 9 808 27 879 7-92 10-685 22-704 13 164 3 330 18 495 13-47 14-502 21-606 15 24 7 849 24 908 13-212 10-452 14-666l9-356c17 53 9 774 24 811 6-65 9-436 21-456 9 87 3 271 18 336 15-107 9-396 20-538l2 1c10 144 7 638 23 715 15-142 4-496 22-596 16 74 3 175 18 253l14-108h2c15 105 7 214 18 320l2-2c13-161 4-416 20-552 14 89 9 634 23 651 15-244 2-512 20-752 14 70 13 712 22 869l3-2c11-196 5-650 22-791 18 58 3 288 23 346l6-5c17 54 15 374 23 465 18-47 15-1251 27-1441 11 163 7 380 9 546 2 204 5 1705 18 1788l11-1261 9-1372 4-218 9 836 12 1722 4 190c12-346 9-722 11-1070 3-309-1-689 12-994 11 137 7 356 9 498l11 772c11-27 14-818 20-943 17 86 7 837 23 1032 12-112 13-632 18-791l6-139c22 25 33 880 43 954 13-142 12-578 13-737 3-214 0-446 12-658 12 126 10 516 11 658l9 785 4 133c13-120 12-565 14-710 2-164 0-328 11-492h2l23 457 18 488c16-20 10-1263 27-1296 13 359 10 719 13 1078l9 601c13-86 16-1316 21-1529l4-110c13 268 10 604 14 878 1 88-2 288 9 371 12-189 4-655 20-783 15 158 7 393 18 568l2-1c5-84 9-622 20-643 15 236 3 473 18 709l2 25c15-88 12-535 21-683h2c6 108 7 591 20 638 18-223 5-459 20-684h3c10 146 6 530 22 628l29-314 16-436c19 39 9 1250 27 1291 13-336 10-691 13-1029 2-110 0-566 12-655 13 280 10 641 13 927 2 180-1 426 11 603 16-103 13-765 25-963l5-44c19 22 15 656 33 693 18-173 9-521 21-721l2-28c14 69 14 781 22 941 17-40 10-1044 25-1216 12 161 9 434 11 602l12 777 2 38c18-123 10-1160 27-1434 14 43 20 1171 24 1330l5 76c12-180 9-393 11-575 4-289 1-578 14-866 14 36 15 1286 24 1474 14-100 16-1145 21-1354l4-92c13 283 10 609 14 895l9 430c12-137 11-539 13-697l9-358c15 98 9 492 20 647l3-2 15-350c15 27 8 362 20 436 19-153 5-595 23-707 19 200 2 569 22 766 18-77 5-430 23-498 9 42 2 126 16 158 14-62 7-129 15-192 12 12 17 442 23 502l2-1c13-166 5-501 23-627 18 58 8 445 29 469 25-25 26-383 33-440 15 40 16 616 23 724 15-63 14-976 22-1152 12 115 10 607 12 743l11 958c13-105 14-1378 16-1571 0-78-2-558 9-613 12 528 9 1056 13 1584 2 247-2 496 9 744l9-691 11-1214 3-60c12 106 13 845 15 1013l7 214c11-168 3-473 18-607 15 139 7 392 18 556 14-37 14-694 23-816 17 51 9 779 26 795 16-118 24-556 41-626 20 66 9 552 27 601 14-94 4-298 22-369h3l4 10h2c15-60 11-180 18-250h3c14 167 12 461 15 638l7 226h2c7-135 12-1095 25-1117 6 92 11 819 25 833 6-51 2-134 15-178l9 31c18-30 13-518 25-609 14 127 15 756 18 928l7 198c12-186 9-408 11-597 1-61 3-662 14-685 15 340 9 713 18 1058l4 105c13-109 14-644 18-802l5-100c14 26 9 462 22 551 13-27 7-118 16-158l13 113c15-18 16-505 23-579 19 125 9 1106 24 1132 13-323 10-647 14-970 2-148-2-322 9-468 12 212 9 500 11 717 2 164 0 526 11 677 12-202 9-450 12-655l9-505c14 42 5 966 22 1070 13-276 10-576 14-854l9-347c15 385 9 800 18 1190l4 118c12-125 12-550 14-696 2-148-2-355 11-499 16 114 10 724 24 928l3 1c9-119 9-672 24-718 20 177 5 459 23 647 15-30 7-573 25-640 19 161 3 384 22 550l2 1c15-100 12-214 27-325l14-86c16 71 14 415 22 525l3 1c8-120 9-836 22-863 13 277 10 555 14 832 1 81-2 316 9 387 11-256 8-514 11-770 2-251-1-519 11-769 12 136 10 557 11 709 2 153 1 786 14 906 11-213 8-428 11-641 1-63 1-594 13-627 12 170 3 412 21 565h2l11-80c18 93 3 287 20 369 15-120 16-701 21-871l4-95c16 108 14 971 25 1197l2 1c16-306 4-651 20-950l3-30c12 30 12 410 20 490l2 1c5-48 4-199 16-229 12 94 5 382 20 434 13-127 6-593 22-654 16 158 3 385 21 530 15-54 4-219 18-292 15 74 7 240 18 333 18-55 5-457 22-565 19 137 4 459 23 617 17-40 8-412 27-430 26 55 18 295 33 372 15-50 16-528 23-635 16 23 8 956 24 985 9-188 9-1102 23-1171 17 342 4 686 20 1028h2c11-221 3-444 18-664 11 27 13 385 18 457 12-23 14-505 21-589 18 107 4 701 22 807 13-180 10-443 14-630 0-38-2-243 9-271 9 167 8 924 22 990 13-229 10-541 13-776l9-453c16 73 16 1341 25 1574 16-97 14-1508 25-1791 17 99 10 1333 25 1609 18-113 3-775 24-932l9 35c11-9 8-71 14-89 16 112 14 771 22 959 16-16 8-1415 25-1461 15 473 5 947 18 1420l2 58c14-104 12-895 18-1092l2-48c14 100 10 624 18 794 13-83 12-695 18-854 13 63 15 1154 21 1345 16-92 8-1569 22-1862l9 747c1 147 2 1145 14 1229 13-459 8-919 15-1378l5-152c17 249 2 529 16 781l2 29c14-171 5-395 16-577 14 109 11 877 18 1074l2 44c11-178 7-407 9-588l9-999 4-151c12 324 9 649 12 973l6 695 5 135c12-277 9-618 13-902 1-44-1-282 9-315 5 64 4 296 16 334l11-156c19 55 5 684 23 821 12-216 8-444 11-660 2-183-1-473 11-648 12 151 9 422 11 581 3 167-1 375 12 539 12-65 5-412 20-432l11 93c19-136 2-339 20-478 19 119 5 583 25 752h2c43-272 22-876 41-1177 11 132 7 386 9 524l11 1436 4 204c11-290 8-581 9-871 1-169 4-1954 16-1989 16 879 9 1758 18 2636l5 239 9-829 11-1445 2-78c13 80 15 1271 20 1488l5 91c13-177 11-440 16-628 1-57-2-151 11-207l2 1c25 91 12 387 32 448 15-71 7-191 17-271 14 16 6 214 18 257 16-146 12-532 18-711l3-45c13 19 16 1262 24 1425 12-123 10-523 12-662 0-73 3-946 15-964 15 277 12 592 18 874 2 58 5 423 21 468 17-115 20-1157 24-1364l5-102c12 205 9 498 11 708 3 339 0 679 14 1019l2-2c15-403 8-806 20-1209l5-87c16 28 18 645 40 763 14-31 17-542 25-635 15 23 7 669 24 724 14-178 12-501 16-693l7-218 2 2c14 271 12 589 16 864 1 103-2 226 9 326 13-155 11-554 13-725l12-625 2 1c5 124 11 1147 25 1159 9-160 4-490 20-612 14 43 0 147 15 181 14-97 3-256 18-337 16 123 10 470 21 635l20-597c17 91 6 587 20 624 18-357 3-715 20-1071 14 108 16 1227 21 1449l4 108c12-242 9-485 11-727l9-717 5-116c19 123 12 1151 31 1176 15-147 15-531 18-697l7-212h2c16 296 3 631 20 920 13-111 14-814 16-975 1-56-3-183 7-236 13 377 10 805 13 1186 1 76-1 464 9 521 13-447 10-894 14-1341 1-188-2-429 9-613 12 254 9 563 11 821 3 251 0 504 11 756 10-24 8-525 27-661 9-63 11-448 21-456 11 229 8 460 11 689l9 698 2 34 9-635 11-1258 3-73c11 107 12 998 13 1159 1 147-1 694 11 818 13-294 10-642 14-942 1-97-1-399 11-486l36 881 7 98c13-149 12-498 15-664 2-79-2-175 9-253 20 145 1 383 27 533 16 92 10 197 18 291 17-22 8-895 25-966 17 375 3 751 18 1125l2 40c11-156 8-334 9-490 3-239 0-536 12-770 11 199 7 415 8 615l12 1092 2 1c16-718 8-1437 18-2155l4-162 12 1214c1 135 1 1169 13 1246 12-383 10-768 14-1151l9-713 4-102c19 91 19 1354 32 1598 14-60 17-1443 24-1666 18 75 10 1626 25 1678 6-185 10-1442 23-1481 5 132 9 1046 22 1077 6-85 5-395 20-446l7 9c15-61 9-199 18-274 17 65 11 630 22 771 19-155 7-875 23-943 16 312 3 626 18 939l2 35c13-113 14-778 18-954l5-103c12 130 11 504 13 651 2 98-1 335 11 424 14-112 17-637 23-802 1-34-2-99 9-130 21 108 9 708 29 868 20-118 5-628 25-780 15 84 8 327 20 443l2 2c9-68 5-138 16-205l2 2c11 76 5 155 18 231l2 1 23-167c16-83 9-170 20-254l2 1c17 178 11 509 21 711l2 37 2 1c18-283 4-569 20-852l3-29c15 41 3 426 22 483l11-79c17 75 5 358 20 393 14-182 11-465 14-654l9-410c16 78 12 1155 25 1380 13-102 15-955 20-1145l4-107c18 85 9 788 27 857 18-86 13-468 41-519 18 26 23 516 31 595h3c14-156 14-552 18-725l8-297c20 120 8 1184 27 1447 12-141 10-481 12-633 3-322 0-645 13-967 16 46 12 1156 25 1351 18-163 5-804 22-898 11 146 6 604 21 686 10-132 7-809 22-851 14 234 11 538 16 779l7 197c16-83 8-537 22-687h2l14 179 16-176c16 52 10 531 22 647 14-107 14-662 18-819l4-82c13 195 11 505 14 710l7 247c12-152 9-488 11-651 1-71 0-584 11-624 13 407 10 832 14 1241l9 643c11-187 7-433 9-623l11-1369 4-198c14 91 17 1400 25 1661l7 89c27-193 28-1279 36-1547l4-64c12 253 9 507 11 760l12 1116 4 136c12-159 10-502 11-672 2-107 4-1097 18-1143 15 208 13 518 18 738l18 276 16 194c20-23 18-1394 29-1563 11 213 8 426 9 638l14 1816 2 94c13-98 17-2205 20-2503l5-246c11 249 7 524 9 774l9 1206 4 174c11-319 9-638 12-956 0-57-2-484 9-518 13 494 5 989 17 1483 17-78 9-1608 23-1893l9 713c1 82 3 1076 13 1092l14-973 4-132c15 239 7 529 16 780 12-55 15-1308 20-1507 14 90 17 2213 23 2552 17-57 7-2552 25-2932 12 396 8 805 11 1201l11 1125 2 1c5-128 8-944 25-995 15-42 16-391 20-468 14 21 16 1284 25 1449 11-163 7-351 9-516l11-993 2-52c15 106 9 772 21 976 17-112 1-497 18-572 9 185 6 964 20 1041 11-317 9-635 11-952l9-891 2-46c11 235 8 471 9 707l12 1461 4 140 11-1036c1-115 2-987 14-1053 9 232 8 1336 24 1433 8-79 10-687 36-711 17 7 24 394 32 443 14-12 17-431 38-514l2-1c21 107 14 776 27 963 13-123 10-553 12-691l9-993 4-180c11 258 7 518 9 776 1 170 4 1820 16 1864 12-683 10-1367 13-2050 2-332-2-664 9-996l9 1013 11 1890 3 103c10-138 5-315 6-454l14-2006 2-107 2 1c6 252 9 1772 23 1853 4-97 9-928 22-940l12 142 15-204c18 56 11 686 25 828 16-112 15-869 25-1077l4-48c16 132 21 916 25 1108l7 165c13-133 14-721 16-883 1-144-1-432 11-566 12 153 9 405 11 564 2 199 0 540 13 729 18-73 6-577 25-726l2-1c8 39 7 79 21 117 10 29 9 146 22 158 10-29 2-72 16-98 13 39 8 105 16 149 12-12 15-413 22-472 15 79 13 607 23 756 12-16 13-717 24-823 19 70 13 769 32 800 19-144 15-890 27-1123 15 64 16 1546 24 1786 11-121 8-474 9-606l12-1442 4-140c13 460 10 925 14 1386 1 118-2 471 9 577 14-385 7-771 15-1156l5-109c10 185 3 659 18 781 15-255 8-579 16-845l2-60 2-2c13 326 9 652 16 978l4 118c13-121 11-513 16-669l4-83c9 44 5 240 16 257 12-141 6-284 16-425 16 48 10 807 22 957 12-150 10-397 12-554 0-43 0-442 11-461 11 214 3 438 16 649l2 25c14-106 9-431 18-578 13 25 15 720 22 833 17-38 8-841 34-985 17 25 24 1237 29 1380 15-41 16-1655 25-1889 11 156 8 412 9 575l9 956 4 155c12-210 9-466 12-680l6-343c12 44 13 731 18 860 13-109 12-834 14-987l7-445c12 98 15 1496 18 1724l4 191 9-719 11-1068c14 106 11 1105 18 1332l3 47c11-185 7-371 9-555 1-121 0-636 11-729 13 383 9 767 13 1150l7 365c11-183 7-377 9-561l9-866 5-130c11 197 8 418 11 617 2 141-1 363 11 499 12-57 10-260 22-358 18-141 6-285 21-427 16 97 12 878 22 1075 13-111 14-995 16-1166l7-398c13 102 15 1486 20 1734l4 107c13-385 10-772 14-1157l9-588 2 2c5 125 14 1227 27 1242 19-161 15-666 36-764 14 23 36 708 47 723 15-154 14-616 16-789l9-441c12 115 12 812 13 963l7 658 5 138c12-286 8-603 11-892l7-676 4-140c12 267 9 535 11 802l9 544c11-158 8-334 9-494 3-220 0-515 12-729 11 173 7 349 9 523l11 865h2c12-398 9-797 16-1195l4-145c12 132 11 528 14 685 1 43-3 141 7 180 11-210 5-420 15-630 13 63 16 1022 20 1193l3 1c12-452 10-905 13-1357 1-145-2-483 9-617 12 363 9 728 11 1091 3 343-1 705 12 1047 11-138 7-401 9-546l9-860 4-126c16 270 0 555 18 823 14-146 5-851 20-897 14 362 10 725 14 1087 1 71-2 420 9 474 13-411 10-839 13-1251l9-640c12 126 10 582 12 729l11 807 2-1c4-109 9-847 20-874 11 175 3 449 18 598 18-154 5-748 23-821 13 200 10 435 13 638l9 338c17-32 7-605 25-721 16 59 2 226 20 268 12-44 5-92 16-136 15 26 13 339 25 407 15-36 17-568 27-671l2-1c21 220 4 506 25 727l2-1c12-147 5-435 22-548 17 43 3 229 20 270 12-55 4-185 18-223 16 95 10 315 21 435h2c16-190 6-381 20-571l2-1c12 138 5 414 21 519 18-110 2-349 20-462 16 107 8 412 20 557 13-29 14-596 23-697 17 76 5 567 22 710 16-121 8-468 20-632 15 27 6 592 23 654 7-103 11-821 22-836 16 300 10 664 18 975l5 85c12-190 9-400 11-591l11-640c16 63 12 1153 25 1363 13-118 14-822 16-985l9-479h2c14 334 11 685 16 1020 1 105-1 380 11 476 13-144 13-630 16-796 1-133 2-649 15-757 14 141 14 737 16 904 3 295 0 592 13 887 21-58 9-1729 30-2007 12 176 9 487 11 671l11 986 5 140c16-18 9-1092 31-1124l41 504c3 81 2 193 15 270 22-29 16-1256 34-1314 12 251 9 503 11 753l11 1249 5 181c11-145 8-437 9-589l13-1812 5-207c11 121 8 416 9 546l13 1494 5 162c14-28 13-1319 43-1396 19 124 12 858 27 1078 14-46 13-709 22-843 15 35 6 328 18 405 15-154 9-462 18-646 18 47 10 1346 25 1367 16-508 9-1036 18-1547l4-126c12 255 9 511 11 765l9 556c17-43 5-724 21-862 7 131 8 931 20 960 17-470 5-941 20-1411 17 29 8 1335 23 1526l2 18c13-258 10-533 13-793 2-111-1-224 9-334 14 89 3 339 21 398l6-22c13 11 16 331 21 377 13-50 16-853 22-997 18 54 8 1274 22 1480l3 20c11-289 8-578 11-867l11-904c14 40 15 1402 25 1618 16-56 9-812 25-984l2 1 13 152 3-1 11-79c20 66 9 613 27 752 16-113 17-1001 25-1211l4-58c13 211 11 520 14 737 1 115 1 590 13 681 13-177 11-486 13-673 1-57 0-368 12-410 7 96 5 415 18 469 11-132 3-433 18-524 12 202 9 453 11 658l11 781c12-119 10-694 11-837 4-461 1-922 14-1382 17 76 11 1835 25 2142l2 34c12-149 11-535 13-702 2-134 3-683 25-808l2 2c17 144 18 820 21 999 1 115-3 240 9 354 12-163 9-437 11-605 1-81 3-870 15-900 15 277 12 629 18 916 1 26-1 160 9 180 12-89 15-555 34-592 20 61 6 282 25 321 16-66 3-137 18-204 18 33 4 204 20 228 12-75 5-255 20-306 16 71 6 159 18 234l3-1c5-37 1-82 13-117 16 63 2 188 18 244 18-140 5-414 20-574 18 124 8 823 23 862 15-321 3-681 18-995l2-32c12 146 9 442 11 598l9 498c18-43 4-927 23-1092 18 296 0 631 20 925 12-52 10-381 18-478l2-1 11 163c18-79 7-568 21-593 13 318 10 697 13 1020 1 52-1 436 9 468 13-472 10-945 14-1417 1-192-3-480 9-666 12 323 8 683 11 1009l9 870 2 45c12-173 9-464 11-646 2-133-2-269 9-402 9 90 3 360 16 412 16-287 7-595 18-887 15 54 8 1495 22 1721l3 22 11-924c1-80 1-895 13-927 6 127 11 1030 25 1063l7-34 2-1 14 174c17-24 9-1038 27-1088 13 275 10 568 13 844 1 86 0 455 11 524 13-211 10-465 14-680 0-36 1-346 11-366 5 63 12 552 22 561 14-118 3-263 21-374 16 29 8 451 27 532 18-89 13-607 27-767h2c14 166 13 480 18 661 1 56-2 137 9 191 20-126 7-599 29-666 21 36 23 437 41 491 19-74 7-418 24-446 15 113 5 228 18 341 15-26 9-349 20-419 15 126 7 736 23 775 13-246 10-494 13-740l9-311c15 330 4 661 18 991l3 36c14-113 10-670 18-847l2-39c13 84 13 741 20 910l2-1c15-337 4-674 21-1011l2-1c6 122 9 816 24 860 24-121 21-604 39-743 18 86 9 796 24 847 10-153 6-621 21-709 13 147 6 297 15 444 11-24 15-548 18-631 16 26 6 1135 23 1272 11-352 8-704 11-1056l9-838c12 104 10 912 11 1057l7 973 5 223 9-912 11-1422c16 86 7 1892 20 2208l2 35 11-1254 9-832c12 224 8 499 9 725l12 1136c16-87 7-1499 22-1523 11 350 4 700 16 1049l2 47c13-111 10-643 18-824 16 78 7 796 20 976 12-204 9-518 12-728l9-614 2 1c14 479 2 974 20 1450 15-57 5-972 23-1140 16 237 5 495 18 736 11-24 14-687 20-791 18 103 9 1228 24 1253 13-323 10-646 14-968 1-104-1-499 11-586 13 222 11 543 14 773 1 125 0 488 13 600 18-93 16-869 36-1056l2-15c17 61 18 920 27 1084 16-20 11-886 25-1016 16 161 3 548 20 666 15-166 8-433 18-620 12 15 18 941 23 1060 14-33 16-1267 24-1450 18 70 11 1128 25 1343l2 22c20-126 13-933 36-978 21 80 12 769 32 879 16-138 10-974 27-1e3 20 308 3 618 22 927 11-12 16-648 23-735 16 34 8 579 22 595 8-106 7-553 20-600 15 176 4 508 21 648 17-141 2-458 20-583 17 141 0 306 18 446 16-120 4-353 18-493 13 116 12 580 16 732l4 113c12-157 10-497 11-666 1-69 1-599 12-635 17 533 4 1067 20 1600 14-52 13-1362 22-1582 12 110 13 815 16 983 1 67-3 137 7 203 7-105 5-474 18-532 5 51 2 180 13 216 17-208 6-467 18-686 17 117 10 1210 23 1476 11-194 7-435 9-631l11-1261 2-62c11 165 8 450 9 622l11 1189 3 59c11-123 9-543 11-686 1-94-1-515 11-588 7 121 5 535 18 605 13-156 7-314 16-470l2-2c13 236 9 474 16 710l4 89c14-124 14-641 18-812l5-107 2-1c5 67 10 583 27 599 30-35 27-206 29-251l9-146 2-1c15 118 3 260 21 372 12-27 12-211 18-261h2c13 116 6 234 18 350l2-1c16-177 5-355 20-532l3-1c12 137 3 335 20 457 11-21 10-149 16-186 10 19 14 285 18 333l2-2c14-225 11-570 15-806l7-224c12 176 10 520 11 706l9 861 5 131c12-258 9-593 11-856 1-121 2-921 14-995 16 426 8 853 18 1279l4 97c15-222 3-444 18-665 14 51 8 384 18 483 13-117 13-572 16-721l4-139c11 13 16 912 23 1030 13-51 12-626 20-754 17 58 4 544 20 597 18-296 6-649 20-956 17 19 9 1330 27 1428 13-246 11-582 14-834 2-153 1-593 13-729 14 135 14 663 16 827l11 505c18-37 10-740 27-758l12 93c11-28 11-167 15-210 17 22 13 830 25 947 12-172 9-451 11-630 3-234 0-468 12-702 12 106 13 855 15 1016l7 268c12-194 9-456 11-655l9-511c14 36 14 1001 23 1159 17-98 8-917 24-962 9 82 3 220 18 290h3l2-3h2c20 87 6 536 25 650 13-149 11-511 13-673 2-90 1-565 14-631 13 186 11 463 13 654 2 95 3 671 18 737 18-120 23-1083 30-1295l4-83c21 122 12 1354 31 1375 15-173 14-454 18-637 2-59 8-566 23-593 16 139 19 992 22 1188l7 262c19-51 10-1739 29-1796 14 327 11 677 14 1006 2 245-1 491 11 736 16-113 12-1220 25-1488 16 79 11 1139 25 1365 13-112 16-1122 20-1324l4-168h3c12 322 10 645 13 967l11 728c16-51 15-1467 27-1700 16 110 12 1034 23 1264l2 36c14-63 11-540 20-668 14 34 4 456 20 531 13-182 11-481 14-671l9-399c16 78 14 1285 27 1528 14-20 19-1350 31-1536l3-1c14 198 12 530 15 737 3 186 0 398 14 583l2-1c16-206 12-468 22-685l25-467c14 139 14 692 16 854 2 197-1 443 11 636 12-138 10-513 11-665 2-144 3-960 16-1057 13 200 10 428 14 631 2 151-1 303 20 453l11 85c22-104 8-841 27-923 14 191 11 510 16 715l7 160c15-144 5-327 17-480 15 19 10 371 21 437 18-118 5-530 24-596 30 97 30 782 41 907l2 16c13-145 10-412 11-564l12-831 2-38c12 128 9 479 11 621 1 76 2 679 14 720 8-144 3-472 18-578 6 52 5 278 15 299 19-286 5-621 21-914 13 76 15 1041 20 1217l4 89c8-115 8-753 23-791l11 113c17-110 5-295 18-419 19 145 9 1081 25 1124 8-172 7-963 22-1034 10 128 2 258 16 386 12-66 11-313 16-406h2c13 284 10 584 13 869 1 91-1 347 9 428 12-306 9-613 12-919 0-85 2-1022 13-1047 12 426 10 852 14 1278l9 643c13-93 13-1174 22-1412l2-2c12 287 9 575 16 863l4 108c18-117 6-652 21-829l2-18c14 139 12 537 18 712l4 69c19-132 2-376 21-510 16 84 1 260 18 339 17-160 6-487 20-678 18 112 9 1169 25 1238 13-311 10-651 13-964l9-491c12 140 9 468 11 620 2 105 0 485 12 573 15-287 6-576 17-863l3-2c13 318 6 635 18 952l2 2c15-402 5-804 18-1206l2-50c13 95 14 942 18 1121l5 102c16-285 6-598 18-890h2c11 283 3 566 16 849l2 35c12-154 9-515 11-682 1-92 0-590 11-654 13 368 10 748 14 1117 1 135-2 374 9 502 12-238 8-478 11-716 1-112-1-482 11-578 14 200 1 403 18 603 13-52 8-241 16-317 17 80 6 496 20 632 13-136 11-503 14-657l6-286c13 13 12 956 23 1082 12-197 9-479 11-681 2-131 0-532 11-645 13 258 9 517 12 776l11 834 2 1c17-479 9-991 20-1477l5-112c17 111 11 897 29 1133l5 34h2c24-111 15-872 36-1001 15 108 17 812 24 1001l5 62c19-69 19-844 43-881 22 105 9 672 29 846 18-66 5-555 27-670h2l7 20 13-81 3 1c17 160 7 768 24 834 13-212 11-484 14-701 1-101-2-244 9-342 16 212 6 478 18 702 11-35 14-611 18-710l2 2c17 491 3 983 20 1475 11-118 8-468 9-598l11-1410 5-141 11 998 11 913c13-18 10-692 23-806l2-1 5 13c14-45 13-423 20-513 14 77 16 1003 20 1170l5 91c13-250 10-547 13-801l9-365c18 122 2 375 20 505l3-2 6-32c15 31 7 203 18 257 16-134 10-532 18-703l2-36c18 125 9 1063 23 1108 16-458 5-916 18-1374l2-57c12 119 10 613 11 755l7 637 5 141c12-221 8-489 11-714l9-511c16 62 3 649 20 712l16-513c13 29 13 634 20 737 18-117 7-847 23-923 15 256 3 512 17 768l3 28c15-69 7-395 20-511 16 40 3 238 20 302 12-31 14-224 36-241 21 68 10 468 25 502 13-189 11-483 13-678l9-400c13 171 10 538 12 720 0 77 2 898 13 920 13-418 10-838 14-1256l9-692 2 1c17 575 9 1150 20 1725l5 137c15-96 17-1255 26-1497l5-58c14 156 13 589 16 762 1 78 1 511 13 566 14-176 12-516 16-707 1-61-1-255 11-309l38 716 5 52c18-76 10-712 25-875 15 116 11 703 20 889l2 34c18-74 3-611 23-753 17 144 4 390 20 550 13-25 10-288 20-351 15 22 6 140 18 179 16-45 4-126 18-177 19 44 6 294 25 337 21-85 8-448 29-535 19 83 8 644 27 785 14-119 15-729 20-905l5-81c13 134 12 569 15 730l9 241c16-233 3-538 23-757h2c14 130 10 458 34 560l2-2c20-143 10-519 25-702 18 63 6 809 24 974 13-139 13-548 16-713l7-185c17 86 2 370 20 477 13-51 7-111 14-164 10 14 14 300 18 347 15-17 5-614 22-700 13 202 10 457 14 664l6 215c12-174 9-422 12-602l9-468c11 126 9 544 11 688l4 431" style="clip-rule:evenodd;fill:none;image-rendering:optimizeQuality;shape-rendering:geometricPrecision;stroke-linejoin:round;stroke-width:18.64;stroke:#a4863d"/>
</svg>
