<svg version="1.1" viewBox="0 0 247 247"
  xmlns="http://www.w3.org/2000/svg">
  <path
    d="m112 0.42438c-20.342 2.7036-39.745 8.4778-57 19.931-13.346 8.8588-24.949 20.418-33.971 33.644-41.356 60.624-18.681 147.37 46.971 180.19 22.787 11.393 48.922 14.898 74 11.52 16.313-2.1975 31.883-8.2686 46-16.573 93.034-54.725 68.975-204.15-37-226.14-12.577-2.6089-26.175-4.2833-39-2.5787m2 8.8611c13.1-1.5507 27.339 0.25555 40 3.7253 89.996 24.663 112.71 145.38 39 201.75-17.595 13.457-38.221 20.372-60 22.951-11.567 1.3693-23.676-0.13686-35-2.5185-92.431-19.441-119.22-143.84-46-201.53 18.149-14.3 39.278-21.694 62-24.383m12 127.71h1c1.0861 3.971 5.7117 21.541 12.437 15.392 4.095-3.744 3.6348-14.233 4.483-19.392 2.849-17.328 7.3273-35.464 8.0802-53h1c0 33.573 4.6176 67.517 6.9105 101 0.38822 5.6692-1.6166 29.452 5.2184 31.248 7.2819 1.9143 7.3363-18.931 7.821-23.248 3.0503-27.17 8.8778-54.695 10.05-82h1c0.049 17.768 3.2275 36.384 5.5756 54 0.50623 3.7978-0.21354 16.094 5.5139 16.248 5.4783 0.14798 5.5272-8.5634 6.0409-12.248 1.9434-13.94 4.7626-27.972 5.8696-42h1c0.25456 12.333 3.4136 24.797 5.1304 37 0.48451 3.4439 0.6124 10.214 4.9599 11.168 5.0282 1.1032 6.483-6.8888 7.5764-10.168 3.8429-11.526 5.3333-20.869 5.3333-33-6.7688 2.1314-8.5476 13.722-10 20h-1c-0.67314-15.678-4.6853-31.467-6.8696-47-0.51419-3.6565-0.78084-14.834-7.0123-13.248-4.2899 1.0917-4.1907 7.8313-4.6968 11.248-1.7643 11.914-2.6012 24.29-5.4213 36h-1c-0.012-18.118-3.1815-37.039-5.5756-55-0.50765-3.8085 0.0717-16.915-6.385-15.94-6.1815 0.93314-5.6321 17.243-6.1944 21.94-2.909 24.297-8.6424 49.534-8.8449 74h-1c-0.0207-31.244-2.3568-65.022-6.4244-96-0.71296-5.4299 1.2129-29.364-6.5363-29.364-6.1959 0-6.5471 17.936-7.1698 22.364-3.5227 25.051-8.6819 49.909-11.87 75-11.621-21.821-9-43.815-9-68 0-8.3139 2.1493-20.21-1.0093-28-6.7946-16.757-29.992-13.556-40.987-3.8148-4.3556 3.8588-7.1035 10.677-12.108 13.512-6.1322 3.4735-12.495 3.7268-17.566 9.3966-6.9041 7.7184-4.6954 17.602-9.3534 25.733-5.0246 8.7714-12.591 11.725-13.802 23.174-0.80531 7.6089 5.6443 16.276 4.1651 23-2.3061 10.483-12.113 15.377-11.248 28 1.0049 14.661 11.45 18.808 19.207 29.174 5.6076 7.4929 6.7426 14.608 15.702 19.652 6.4421 3.6264 14.64 2.608 20.715 6.1867 13.94 8.2124 28.389 18.558 43.057 2.8032 5.0622-5.4372 3.2284-14.956 3.2284-21.816v-54m-7-43c-3.427-1.751-15.503-8.4327-17.654-1.7901-1.367 4.2204 15.879 6.6487 17.376 13.794 1.6896 8.0653 0.27855 17.764 0.27855 25.996v53c0 9.5042 2.6252 21.123-7.0008 26.633-11.324 6.4822-23.894-0.74097-28.814-11.633-1.4287-3.1626-2.094-12.504-6.2708-13.218-6.7815-1.1579-1.7107 11.769-0.91435 14.218-14.503-0.63229-25.321-10.125-25.741-25-0.11553-4.0929 3.8499-13.65 0.83179-16.909-5.455-5.8899-7.773 12.405-8.091 14.909-10.635-7.5548-15.537-21.225-8.5177-33 2.4863-4.1708 8.9495-8.1998 9.7909-13 0.61464-3.5065-3.0279-7.7912-4.1829-11-2.8464-7.9076-2.8445-16.996 2.6991-23.815 5.0972-6.2702 13.571-7.8285 21.211-7.0116 2.9603 0.31656 6.866 2.191 9.7276 0.74768 4.3524-2.1953-0.21629-5.5411-2.7438-6.4421-5.7196-2.039-12.021-1.4792-17.984-1.4792 2.4844-13.186 6.4602-24.656 22-25.402 4.2014-0.2018 14.258 4.049 17.338 0.79938 4.3971-4.6392-7.8677-7.0325-10.338-7.3974 4.5235-11.676 27.665-24.791 35.821-8.9846 2.4252 4.7002 1.179 11.848 1.179 16.985v39m-12.491-39.953c-5.1918 3.4734-3.5752 11.911-10.513 15.5-5.7095 2.9536-22.806-3.8778-24.86-0.22916-2.431 4.3197 5.0323 7.0327 7.8634 7.9082 8.2387 2.5476 18.047 2.23 24.907-3.6165 4.1179-3.51 7.0699-9.2255 7.7485-14.605 0.37624-2.9825-1.4181-7.4515-5.1458-4.9576m-30.509 64.953c-1.8453 4.76-4.9452 8.6083-10 10.196-2.881 0.90491-10.229-0.2637-10.824 3.8935-0.78089 5.4524 9.9757 4.091 12.824 3.2724 8.1415-2.3401 10.063-9.3953 16.379-13.334 2.7181-1.6952 6.5792-0.88718 9.6211-1.1983 2.5381-0.2596 7.3843-0.69359 7.9398-3.9182 0.57257-3.3238-3.6289-3.8603-5.9406-3.8025-11.616 0.29039-19.533-0.88466-27.815-10.112-1.936-2.157-5.8014-8.8705-9.5694-5.9498-2.535 1.9649-0.27827 5.9697 0.99846 7.9522 3.8112 5.9179 9.6789 10.86 16.387 13.001m8 48c-6.0274 6.7e-4 -12.396 0.0386-17.941 2.8032-2.3418 1.1675-5.976 5.7849-1.74 7.2701 7.5567 2.6494 15.658-4.562 24.681-0.54397 3.6027 1.6042 13.42 12.833 17.2 8.8233 5.0827-5.392-12.576-14.956-14.306-19.367-2.2881-5.8342-0.11398-12.261 3.4923-16.985 1.901-2.4902 6.3461-6.0388 4.9522-9.6782-2.0674-5.3979-8.8605 1.6717-10.438 3.6937-5.8607 7.5105-6.5968 14.831-5.8997 23.985z"
    style="fill:#d6af64"
  />
</svg>
