<?xml version="1.0" encoding="UTF-8" standalone="no"?>
<svg
   xml:space="preserve"
   width="22488.475"
   height="2977.6399"
   version="1.1"
   style="clip-rule:evenodd;fill-rule:evenodd;image-rendering:optimizeQuality;shape-rendering:geometricPrecision;text-rendering:geometricPrecision"
   viewBox="0 0 22488.475 2977.6399"
   id="svg1"
   xmlns="http://www.w3.org/2000/svg"
   xmlns:svg="http://www.w3.org/2000/svg"><defs
   id="defs1" />
  <!-- theta waveform -->
  
<path
   class="fil1 str1"
   d="m 7.4836823,872.31992 c 71.9999997,97 112.9999977,1332.99998 204.9999977,914.99998 24,-112 87,-659 139,-691 41,-24 104,257 122,311 19,61 46,158 128,137 199,-49 171,-212 263,-349 71,-105 121,185 130,224 7.00002,32 70.00002,392 119.00002,349 94,-81 145,-1210.99998 245,-660 22,119 91,744 135,785 50,47 105,-472 110,-506 2,-16 52,-471.99998 106,-383 70,119 114,853 218,636 80,-169 117,-499 292,-289 60,72 94,173 186,101 114,-90 112,42 180,59 117,31 150,-905.99998 256,-108 6,45 63,595 104,571 46,-26 110,-892 121,-993.99998 57,-545 91,-176 115,94.99998 6,76 71,1051 114,1040 42,-11 103,-862 110,-941 2,-14 36,-451.99998 79,-253.99998 30,136.99998 86,867.99998 126,885.99998 41,18 99,-681 106,-740 51,-439.99998 80,-89.99998 96,100 31,351 45,777 86,1113 42,349 70,-170 74,-221 42,-608 50,-1220.99998 99,-1827.99998 2,-27 11,-209.000002 33,-221.0000023 50,17.0000003 110,1872.9999823 117,2028.9999823 4,77 40,1064 81,891 41,-170 107,-1944.99998 126,-2272.99998 0,0 32,-681.000002 74,-513 39,153 110,1358.99998 135,1633.99998 140,1541 246,-615 261,-848.99998 4,-69 45,-860.000002 87,-869.000002 56,36 117,1831.999982 124,1996.999982 3,64 32,901 72,912 47,-31 107,-1761 115,-1924 2,-60.99998 38,-996.999982 83,-833.99998 54,197 98,1814.99998 177,1683.99998 47,-78 72,-507 144,-297 52,150 75,273 117,-72 15,-119 75,-881.99998 110,-927.99998 49,-66 107,1013.99998 115,1125.99998 0,0 38,661 81,501 46,-174 98,-1385.99998 159,-1301.99998 57,77.99998 90,923.99998 169,551.99998 7,-33 58,-389 92,-362 80,67 115,1543 209,553 6,-63 67,-923.99998 110,-906.99998 39,14 100,765.99998 110,849.99998 4,34 35,373 81,190 21,-84 77,-556 119,-553 66,5 94,624 182,128 5,-26 54,-385.99998 92,-343 78,87 119,1405 209.0003,731 16,-116 81,-853.99998 124,-898.99998 45,-48 99,498.99998 103,532.99998 3,20 57,580 117,476 85,-148 153,-1280.99998 241,-875.99998 40,182.99998 104,974.99998 148.0002,1035.99998 51,70 106,-721 110,-771 2,-23 45,-590.99998 85,-513.99998 62,116 113,1516.99998 183,1233.99998 37,-153 94,-1039.99998 143,-1049.99998 38,-7 98,583.99998 108,652.99998 56,376 92,81 119,-95 3,-17 50,-408 97,-326 65,113 91,677 180,306 4,-17 55,-304 94,-243 77,119 111,1023 202,222 5,-41 62,-675.99998 102,-648.99998 46,31 110,998.99998 121,1115.99998 56,588 88.9998,220 114.9998,-91 29,-362 46,-794 89,-1144.99998 49,-392 85,104 93,192 33,372.99998 51,835.99998 98,1192.99998 49,368 89,-103 97,-184 11,-102 78,-1022.99998 128,-1044.99998 43,-19 103,541.99998 110,595.99998 3,17 41,361 92,233 36,-88 85,-469 135,-374 80,152 110,968 207,98 5,-41 62,-685.99998 103,-651.99998 47,38 113,988.99998 124,1107.99998 1,11 38,491 83,292 45,-196 107,-1259.99998 171,-1295.99998 41,-23 106,380.99998 112,412.99998 26,124 120,493 185,589 66,99 107,-293 110,-315 10,-76 78,-747.99998 121,-759.99998 49,-14 110,671.99998 117,729.99998 3,23 44,463 99,396 33,-40 82,-307 146,-443 114,-243 122,-531.99998 171,-631.99998 51,-103 85,361.99998 85,368.99998 32,342 50,775 92,1099 46,344 76,-130 81,-193 41,-500 51,-1003 99,-1501.99998 47,-486 82,53 92,183 29,366.99998 46,820.99998 88,1174.99998 44,371 80,-22 92,-133 5,-47 61,-715 108,-681 65,48 98,893 184,297 7,-44 65,-585.99998 104,-559.99998 45,30 111,876.99998 123,989.99998 61,546 99,138 124,-113 8,-79 76,-999.99998 130,-996.99998 46,3 116,671.99998 126,742.99998 3,18 51,470 119,347 96,-173 210,-1234.99998 346,-584 22,103 98,607 140,645 57,52 114,-545 119,-588 2,-16 53,-543.99998 101,-446.99998 68,137.99998 117,1253.99998 195,967.99998 34,-123 92,-733 142,-738 65,-6 102,692 184,461 31,-85 77,-392 128,-292 67,129 93,562 176,151 4,-20 52,-325 87,-290 83,80 120,1453 212,447 7,-78 69,-1009.99998 110,-975.99998 44,37 107,1224.99998 117,1357.99998 0,0 34,580 74,360 44,-241 83,-1158 112,-1488.99998 51,-571 87,-82 106,137 5,60.99998 65,1001.99998 117,968.99998 58,-36 94,-875 177,-659 70,183 80,464 169,47 4,-22 47,-279 87,-212 73,120 109,972 200,526 12,-56 69,-456 111,-446 70,16 107,787 195,233 7,-43 65,-540.99998 103,-509.99998 48,38 112,941.99998 124,1056.99998 55,537 87,187 110,-90 35,-418 51,-895.99998 97,-1301.99998 48,-422 83,79 92,181 37,438.99998 51,890.99998 101,1325.99998 52,458 96,-6 112,-158 18,-161 85,-1015.99998 176,-1101.99998 110,-105 174,781.99998 177,820.99998 6,66 66,849 110,780 55,-86 123,-1626.99998 135,-1826.99998 0,0 37,-719 77,-522.000002 46,227.000002 107,1886.999982 130,2260.999982 0,0 32,654 72,412 44,-269 87,-1370 106,-1710 2,-49.99998 42,-866.99998 87,-741.99998 41,115 112,1271.99998 135,1502.99998 1,9 37,474 90,308 57,-179 139,-1233.99998 229,-1183.99998 59,34 137,656.99998 157,767.99998 68,367 107,88 133,-86 9,-60 74,-641.99998 119,-632.99998 46,9 111,636.99998 126,729.99998 56,349 92,13 108,-121 7,-59 69,-744.99998 110,-735.99998 46,11 110,904.99998 119,993.99998 60,596 94,171 117,-113 9,-106 71,-1148.99998 115,-1166.99998 46,-20 109,1108.99998 114,1187.99998 0,3 38,622 79,503 50,-146 112,-1641.99998 171,-1610.99998 42,22 107,963.99998 117,1066.99998 0,5 36,479 81,302 42,-168 102,-1116.99998 157,-1116.99998 41,1 107,637.99998 117,706.99998 4,31 40,337 87,166 31,-112 91,-634 140,-642 62,-11 103,562 182,422 67,-119 86,-441 177,-108"
   id="path13"
   style="clip-rule:evenodd;fill:none;fill-rule:evenodd;stroke:#a4863d;stroke-width:18.64;stroke-linejoin:round;stroke-opacity:1;image-rendering:optimizeQuality;shape-rendering:geometricPrecision;text-rendering:geometricPrecision" /></svg>
