<svg xmlns="http://www.w3.org/2000/svg" xmlns:xlink="http://www.w3.org/1999/xlink" width="500" zoomAndPan="magnify" viewBox="0 0 375 374.999991" height="500" preserveAspectRatio="xMidYMid meet" version="1.0"><defs><g/><clipPath id="db6138e645"><path d="M 94.878906 35.875 L 280.121094 35.875 L 280.121094 221.117188 L 94.878906 221.117188 Z M 94.878906 35.875 " clip-rule="nonzero"/></clipPath><clipPath id="02b989fec9"><path d="M 187.5 35.875 C 136.347656 35.875 94.878906 77.34375 94.878906 128.496094 C 94.878906 179.648438 136.347656 221.117188 187.5 221.117188 C 238.652344 221.117188 280.121094 179.648438 280.121094 128.496094 C 280.121094 77.34375 238.652344 35.875 187.5 35.875 Z M 187.5 35.875 " clip-rule="nonzero"/></clipPath><clipPath id="99a211eaa0"><path d="M 94.878906 35.875 L 280.117188 35.875 L 280.117188 221.113281 L 94.878906 221.113281 Z M 94.878906 35.875 " clip-rule="nonzero"/></clipPath><clipPath id="248b0b5542"><path d="M 187.5 35.875 C 136.347656 35.875 94.878906 77.339844 94.878906 128.492188 C 94.878906 179.644531 136.347656 221.113281 187.5 221.113281 C 238.648438 221.113281 280.117188 179.644531 280.117188 128.492188 C 280.117188 77.339844 238.648438 35.875 187.5 35.875 Z M 187.5 35.875 " clip-rule="nonzero"/></clipPath><clipPath id="24fb3bb082"><path d="M 104.265625 45.953125 L 269.347656 45.953125 L 269.347656 211.035156 L 104.265625 211.035156 Z M 104.265625 45.953125 " clip-rule="nonzero"/></clipPath><clipPath id="ac0177811d"><path d="M 186.808594 45.953125 C 141.222656 45.953125 104.265625 82.910156 104.265625 128.496094 C 104.265625 174.082031 141.222656 211.035156 186.808594 211.035156 C 232.394531 211.035156 269.347656 174.082031 269.347656 128.496094 C 269.347656 82.910156 232.394531 45.953125 186.808594 45.953125 Z M 186.808594 45.953125 " clip-rule="nonzero"/></clipPath><clipPath id="bb8a8e5ef6"><path d="M 104.265625 45.953125 L 269.265625 45.953125 L 269.265625 210.953125 L 104.265625 210.953125 Z M 104.265625 45.953125 " clip-rule="nonzero"/></clipPath><clipPath id="5f9bc30d00"><path d="M 186.808594 45.953125 C 141.222656 45.953125 104.265625 82.910156 104.265625 128.496094 C 104.265625 174.082031 141.222656 211.035156 186.808594 211.035156 C 232.394531 211.035156 269.347656 174.082031 269.347656 128.496094 C 269.347656 82.910156 232.394531 45.953125 186.808594 45.953125 Z M 186.808594 45.953125 " clip-rule="nonzero"/></clipPath><clipPath id="84cd2e6772"><path d="M 187.175781 61 L 268.175781 61 L 268.175781 196 L 187.175781 196 Z M 187.175781 61 " clip-rule="nonzero"/></clipPath><clipPath id="803f622736"><path d="M 112.375 53.496094 L 189.625 53.496094 L 189.625 202 L 112.375 202 Z M 112.375 53.496094 " clip-rule="nonzero"/></clipPath><clipPath id="df2633dea2"><path d="M 187 186 L 195 186 L 195 198 L 187 198 Z M 187 186 " clip-rule="nonzero"/></clipPath><clipPath id="676b5fbcd4"><path d="M 194.515625 187.285156 L 192.480469 198.347656 L 186.582031 197.265625 L 188.617188 186.199219 Z M 194.515625 187.285156 " clip-rule="nonzero"/></clipPath><clipPath id="35a6eb7f10"><path d="M 195.90625 179.714844 L 192.515625 198.15625 L 186.617188 197.070312 L 190.007812 178.632812 Z M 195.90625 179.714844 " clip-rule="nonzero"/></clipPath><clipPath id="d036e34778"><path d="M 184 55 L 194 55 L 194 67 L 184 67 Z M 184 55 " clip-rule="nonzero"/></clipPath><clipPath id="373ffc83bd"><path d="M 188.941406 55.699219 L 195.523438 64.824219 L 190.65625 68.332031 L 184.074219 59.207031 Z M 188.941406 55.699219 " clip-rule="nonzero"/></clipPath><clipPath id="38792b75a3"><path d="M 184.441406 49.457031 L 195.410156 64.664062 L 190.542969 68.175781 L 179.574219 52.964844 Z M 184.441406 49.457031 " clip-rule="nonzero"/></clipPath></defs><rect x="-37.5" width="450" fill="#ffffff" y="-37.499999" height="449.999989" fill-opacity="1"/><rect x="-37.5" width="450" fill="#ffffff" y="-37.499999" height="449.999989" fill-opacity="1"/><g clip-path="url(#db6138e645)"><g clip-path="url(#02b989fec9)"><path fill="#ffffff" d="M 94.878906 35.875 L 280.121094 35.875 L 280.121094 221.117188 L 94.878906 221.117188 Z M 94.878906 35.875 " fill-opacity="1" fill-rule="nonzero"/></g></g><g clip-path="url(#99a211eaa0)"><g clip-path="url(#248b0b5542)"><path stroke-linecap="butt" transform="matrix(0.75, 0, 0, 0.75, 94.879085, 35.874461)" fill="none" stroke-linejoin="miter" d="M 123.494561 0.000719194 C 55.291431 0.000719194 -0.000238959 55.287181 -0.000238959 123.490311 C -0.000238959 191.69344 55.291431 246.98511 123.494561 246.98511 C 191.692482 246.98511 246.984152 191.69344 246.984152 123.490311 C 246.984152 55.287181 191.692482 0.000719194 123.494561 0.000719194 Z M 123.494561 0.000719194 " stroke="#d5ad60" stroke-width="18" stroke-opacity="1" stroke-miterlimit="4"/></g></g><g clip-path="url(#24fb3bb082)"><g clip-path="url(#ac0177811d)"><path fill="#ffffff" d="M 104.265625 45.953125 L 269.347656 45.953125 L 269.347656 211.035156 L 104.265625 211.035156 Z M 104.265625 45.953125 " fill-opacity="1" fill-rule="nonzero"/></g></g><g clip-path="url(#bb8a8e5ef6)"><g clip-path="url(#5f9bc30d00)"><path stroke-linecap="butt" transform="matrix(0.75, 0, 0, 0.75, 104.266778, 45.954076)" fill="none" stroke-linejoin="miter" d="M 110.055761 -0.00126824 C 49.274507 -0.00126824 -0.00153794 49.274777 -0.00153794 110.056031 C -0.00153794 170.837285 49.274507 220.108121 110.055761 220.108121 C 170.837015 220.108121 220.107852 170.837285 220.107852 110.056031 C 220.107852 49.274777 170.837015 -0.00126824 110.055761 -0.00126824 Z M 110.055761 -0.00126824 " stroke="#ffffff" stroke-width="18" stroke-opacity="1" stroke-miterlimit="4"/></g></g><g clip-path="url(#84cd2e6772)"><path fill="#d5ad60" d="M 219.410156 195.5625 C 219.375 195.5625 219.34375 195.5625 219.324219 195.5625 C 217.625 195.507812 216.230469 194.1875 216.128906 192.484375 L 209.324219 94.011719 L 200.683594 148.796875 C 200.445312 150.257812 199.257812 151.390625 197.796875 151.5625 C 196.269531 151.71875 194.914062 150.875 194.363281 149.503906 L 187.886719 133.335938 L 182.578125 141.308594 C 181.925781 142.304688 180.789062 142.855469 179.621094 142.785156 C 178.453125 142.699219 177.40625 142.011719 176.875 140.964844 L 171.375 129.933594 L 165.292969 145.105469 C 164.746094 146.496094 163.320312 147.285156 161.839844 147.164062 C 160.363281 146.976562 159.179688 145.824219 158.972656 144.347656 L 153.355469 105.074219 L 143.511719 170.769531 C 143.269531 172.386719 141.878906 173.570312 140.246094 173.570312 C 140.246094 173.570312 140.246094 173.570312 140.230469 173.570312 C 138.597656 173.570312 137.222656 172.367188 136.984375 170.738281 L 130.367188 124.488281 L 125.816406 140.398438 C 125.472656 141.632812 124.441406 142.542969 123.152344 142.75 C 121.898438 142.941406 120.628906 142.390625 119.90625 141.308594 L 113.34375 131.464844 L 107.398438 137.425781 C 106.109375 138.714844 104.015625 138.714844 102.726562 137.425781 C 101.4375 136.136719 101.4375 134.039062 102.726562 132.753906 L 111.523438 123.957031 C 112.226562 123.25 113.152344 122.890625 114.183594 123.011719 C 115.164062 123.113281 116.058594 123.648438 116.605469 124.472656 L 121.453125 131.722656 L 128.289062 107.789062 C 128.703125 106.3125 130.160156 105.332031 131.675781 105.417969 C 133.238281 105.523438 134.492188 106.691406 134.714844 108.238281 L 140.332031 147.507812 L 150.175781 81.832031 C 150.417969 80.214844 151.808594 79.015625 153.441406 79.015625 C 153.441406 79.015625 153.457031 79.015625 153.457031 79.015625 C 155.089844 79.015625 156.480469 80.234375 156.703125 81.847656 L 163.75 131.207031 L 167.972656 120.675781 C 168.457031 119.472656 169.589844 118.648438 170.894531 118.597656 C 172.355469 118.527344 173.402344 119.265625 173.988281 120.417969 L 180.242188 132.925781 L 185.875 124.472656 C 186.5625 123.441406 187.695312 122.855469 188.96875 123.011719 C 190.1875 123.132812 191.234375 123.9375 191.683594 125.074219 L 196.027344 135.929688 L 207.351562 64.207031 C 207.625 62.554688 208.929688 61.320312 210.753906 61.421875 C 212.4375 61.507812 213.792969 62.8125 213.894531 64.496094 L 220.355469 158.074219 L 229.339844 86.296875 C 229.53125 84.648438 230.9375 83.410156 232.605469 83.410156 C 232.621094 83.410156 232.621094 83.410156 232.621094 83.410156 C 234.304688 83.429688 235.695312 84.683594 235.886719 86.351562 L 241.8125 139.691406 L 246.933594 103.839844 C 247.15625 102.222656 248.546875 101.019531 250.179688 101.003906 C 250.179688 101.003906 250.195312 101.003906 250.195312 101.003906 C 251.828125 101.003906 253.203125 102.191406 253.460938 103.804688 L 260.179688 147.492188 L 264.660156 134.039062 C 265.058594 132.855469 266.105469 131.980469 267.359375 131.824219 C 268.597656 131.636719 269.832031 132.203125 270.539062 133.269531 L 275.191406 140.242188 L 277.789062 129.898438 C 278.097656 128.628906 279.128906 127.667969 280.414062 127.445312 C 281.738281 127.238281 283.011719 127.789062 283.730469 128.871094 L 287.804688 134.984375 L 295.308594 86.210938 C 295.566406 84.5625 297.027344 83.410156 298.660156 83.410156 C 300.328125 83.464844 301.703125 84.734375 301.855469 86.382812 L 308.554688 153.386719 L 317.335938 112.410156 C 317.660156 110.933594 318.949219 109.851562 320.445312 109.800781 C 320.496094 109.800781 320.53125 109.800781 320.566406 109.800781 C 322.042969 109.800781 323.332031 110.761719 323.726562 112.1875 L 330.203125 134.832031 L 335.203125 124.816406 C 336.320312 122.582031 339.996094 122.582031 341.113281 124.816406 L 345.507812 133.609375 C 346.316406 135.242188 345.664062 137.21875 344.03125 138.042969 C 342.398438 138.851562 340.425781 138.199219 339.601562 136.566406 L 338.15625 133.664062 L 332.316406 145.363281 C 331.695312 146.566406 330.460938 147.285156 329.050781 147.164062 C 327.695312 147.046875 326.558594 146.101562 326.199219 144.796875 L 321.027344 126.703125 L 310.601562 175.359375 C 310.257812 176.957031 308.882812 178.089844 307.183594 177.96875 C 305.566406 177.882812 304.242188 176.613281 304.089844 174.996094 L 297.886719 112.925781 L 293.042969 144.382812 C 292.835938 145.722656 291.824219 146.804688 290.484375 147.097656 C 289.160156 147.390625 287.785156 146.839844 287.03125 145.707031 L 282.375 138.730469 L 279.78125 149.074219 C 279.472656 150.34375 278.441406 151.304688 277.152344 151.53125 C 275.847656 151.753906 274.558594 151.203125 273.835938 150.105469 L 268.785156 142.527344 L 262.121094 162.523438 C 261.636719 163.949219 260.265625 164.914062 258.71875 164.757812 C 257.207031 164.636719 255.96875 163.488281 255.726562 161.976562 L 250.316406 126.773438 L 244.664062 166.339844 C 244.441406 167.96875 243.03125 169.171875 241.402344 169.171875 C 241.382812 169.171875 241.367188 169.171875 241.347656 169.171875 C 239.683594 169.140625 238.308594 167.882812 238.121094 166.234375 L 232.414062 114.851562 L 222.675781 192.675781 C 222.484375 194.324219 221.078125 195.5625 219.410156 195.5625 " fill-opacity="1" fill-rule="nonzero"/></g><g clip-path="url(#803f622736)"><path fill="#d5ad60" d="M 172.703125 53.859375 C 171.695312 53.890625 170.683594 54.007812 169.671875 54.214844 C 161.792969 55.734375 154.0625 61.53125 150.492188 70.539062 C 147.042969 70.71875 143.742188 71.550781 140.738281 73.246094 C 133.992188 77.082031 129.5 85.140625 129.382812 97.332031 C 126.230469 98.878906 123.613281 101.078125 121.738281 103.875 C 116.832031 111.097656 116.921875 121.417969 122.808594 131.257812 C 115.972656 136.996094 112.375 144.578125 112.910156 152.191406 C 113.445312 160.25 118.617188 167.980469 127.953125 173.273438 C 128.816406 177.527344 130.542969 181.125 133.097656 183.949219 C 138.421875 189.894531 146.539062 192.363281 154.953125 192.484375 C 157.867188 196.585938 161.644531 199.46875 165.867188 200.898438 C 173.0625 203.367188 181.296875 201.34375 187.214844 194.890625 C 193.164062 201.34375 201.367188 203.367188 208.566406 200.898438 C 212.757812 199.46875 216.5625 196.554688 219.449219 192.484375 C 227.863281 192.363281 235.980469 189.894531 241.304688 183.949219 C 243.832031 181.125 245.585938 177.527344 246.445312 173.273438 C 255.785156 167.980469 260.957031 160.25 261.492188 152.191406 C 262 144.578125 258.398438 136.996094 251.589844 131.257812 C 257.476562 121.445312 257.539062 111.097656 252.660156 103.875 C 250.789062 101.078125 248.140625 98.878906 245.019531 97.332031 C 244.902344 85.140625 240.441406 77.050781 233.691406 73.246094 C 230.6875 71.550781 227.355469 70.71875 223.9375 70.539062 C 220.339844 61.53125 212.636719 55.734375 204.757812 54.214844 C 203.746094 54.007812 202.738281 53.917969 201.695312 53.859375 C 196.164062 53.652344 190.753906 55.792969 187.273438 60.3125 C 183.675781 55.761719 178.234375 53.621094 172.703125 53.859375 Z M 199.527344 59.242188 C 200.121094 59.210938 200.746094 59.210938 201.367188 59.242188 C 202.113281 59.300781 202.855469 59.390625 203.628906 59.539062 C 209.128906 60.609375 214.867188 64.5625 217.992188 70.839844 C 215.375 71.222656 212.757812 71.9375 210.230469 72.917969 C 206.960938 74.289062 208.863281 79.195312 212.222656 78.003906 C 218.972656 75.359375 225.929688 75.148438 230.925781 77.972656 C 235.503906 80.5625 238.953125 85.824219 239.429688 95.519531 C 234.851562 94.597656 229.617188 94.804688 223.9375 96.617188 C 220.429688 97.71875 222.125 102.980469 225.601562 101.820312 C 236.664062 98.28125 244.277344 101.316406 248.082031 106.90625 C 251.886719 112.496094 252.007812 121.269531 245.734375 130.308594 C 244.691406 131.703125 245.226562 133.726562 246.832031 134.441406 C 253.40625 139.40625 256.40625 145.710938 256.019531 151.777344 C 255.664062 156.949219 252.839844 162.152344 246.921875 166.433594 C 246.832031 163.105469 246.359375 159.535156 245.289062 155.613281 C 244.988281 154.421875 243.917969 153.589844 242.699219 153.558594 C 240.855469 153.53125 239.519531 155.285156 240.054688 157.039062 C 243.207031 168.488281 241.304688 175.652344 237.199219 180.230469 C 233.808594 184.007812 228.546875 186.179688 222.480469 186.773438 C 223.582031 184.097656 224.414062 181.125 224.828125 177.851562 C 225.066406 176.21875 223.820312 174.761719 222.183594 174.730469 C 220.785156 174.703125 219.597656 175.773438 219.449219 177.167969 C 218.140625 187.515625 212.726562 193.640625 206.78125 195.664062 C 201.042969 197.625 194.679688 195.992188 189.921875 189.507812 L 189.921875 160.21875 C 192.804688 155.523438 196.195312 153.441406 201.726562 153.796875 C 205.441406 154.125 205.800781 148.503906 202.082031 148.355469 C 197.382812 148.058594 193.25 149.425781 189.921875 152.042969 L 189.921875 66.378906 C 189.921875 66.316406 189.949219 66.257812 189.949219 66.230469 C 191.792969 61.648438 195.304688 59.480469 199.527344 59.242188 Z M 172.914062 59.242188 C 177.96875 58.914062 182.28125 60.996094 184.421875 66.289062 C 184.421875 66.316406 184.421875 66.347656 184.421875 66.40625 L 184.421875 106.667969 C 181.089844 104.023438 176.957031 102.59375 172.199219 102.921875 C 168.660156 103.25 169.019531 108.511719 172.554688 108.363281 C 178.117188 108.007812 181.535156 110.085938 184.421875 114.84375 L 184.421875 189.628906 C 179.632812 196.082031 173.269531 197.746094 167.53125 195.78125 C 161.613281 193.761719 156.171875 187.636719 154.863281 177.289062 C 154.714844 175.859375 153.496094 174.789062 152.039062 174.851562 C 150.433594 174.910156 149.246094 176.367188 149.453125 177.972656 C 149.867188 181.242188 150.699219 184.214844 151.800781 186.890625 C 145.734375 186.269531 140.441406 184.128906 137.054688 180.320312 C 132.949219 175.742188 131.105469 168.574219 134.226562 157.128906 C 134.644531 155.671875 133.8125 154.15625 132.382812 153.738281 C 132.085938 153.648438 131.789062 153.621094 131.492188 153.621094 C 130.304688 153.679688 129.261719 154.511719 128.964844 155.671875 C 127.894531 159.597656 127.390625 163.164062 127.328125 166.496094 C 121.441406 162.210938 118.585938 157.007812 118.230469 151.835938 C 117.816406 145.621094 120.964844 139.136719 127.894531 134.113281 C 129.144531 133.25 129.441406 131.554688 128.578125 130.308594 C 128.488281 130.1875 128.398438 130.070312 128.28125 129.949219 C 122.273438 121.058594 122.394531 112.464844 126.140625 106.9375 C 129.945312 101.347656 137.589844 98.28125 148.648438 101.851562 C 152.1875 103.101562 153.914062 97.6875 150.316406 96.648438 C 144.636719 94.832031 139.371094 94.597656 134.792969 95.546875 C 135.269531 85.855469 138.71875 80.589844 143.296875 78.003906 C 148.292969 75.179688 155.25 75.386719 162 78.035156 C 165.390625 79.371094 167.382812 74.257812 163.992188 72.917969 C 161.464844 71.9375 158.847656 71.222656 156.230469 70.839844 C 159.355469 64.5625 165.09375 60.609375 170.59375 59.539062 C 171.425781 59.390625 172.167969 59.300781 172.914062 59.242188 Z M 172.914062 59.242188 " fill-opacity="1" fill-rule="nonzero"/></g><path fill="#d5ad60" d="M 140.027344 108.304688 C 138.511719 108.363281 137.351562 109.640625 137.441406 111.160156 C 137.46875 111.605469 137.589844 112.050781 137.824219 112.4375 C 141.691406 118.976562 146.507812 123.261719 151.980469 125.460938 C 152.128906 125.519531 152.277344 125.550781 152.394531 125.609375 C 149.660156 131.734375 145.140625 134.144531 138.777344 133.460938 C 137.289062 133.25 135.894531 134.261719 135.683594 135.75 C 135.476562 137.234375 136.488281 138.632812 137.976562 138.839844 C 138.035156 138.839844 138.125 138.871094 138.183594 138.871094 C 146.746094 139.761719 154.148438 135.304688 157.6875 126.949219 C 161.496094 127.542969 165.480469 127.394531 169.523438 126.589844 C 171.011719 126.414062 172.082031 125.042969 171.902344 123.558594 C 171.722656 122.070312 170.355469 121 168.867188 121.179688 C 168.75 121.207031 168.632812 121.207031 168.511719 121.238281 C 163.101562 122.308594 158.285156 122.128906 154.03125 120.40625 C 149.78125 118.679688 145.945312 115.410156 142.554688 109.640625 C 141.988281 108.78125 141.039062 108.273438 140.027344 108.304688 Z M 140.027344 108.304688 " fill-opacity="1" fill-rule="nonzero"/><path fill="#d5ad60" d="M 168.035156 138.425781 C 167.441406 138.453125 166.847656 138.722656 166.402344 139.109375 C 162.683594 142.351562 159.59375 146.125 158.195312 150.734375 C 157.214844 153.976562 157.152344 157.542969 158.105469 161.410156 C 153.257812 160.667969 148.054688 161.46875 142.703125 163.90625 C 141.304688 164.472656 140.652344 166.078125 141.214844 167.476562 C 141.78125 168.875 143.386719 169.527344 144.785156 168.960938 C 144.84375 168.933594 144.902344 168.902344 144.960938 168.875 C 150.253906 166.464844 154.773438 166.046875 158.9375 167.117188 C 163.101562 168.1875 167.054688 170.835938 170.832031 175.027344 C 171.78125 176.1875 173.507812 176.335938 174.667969 175.386719 C 175.828125 174.433594 175.976562 172.710938 175.023438 171.550781 C 174.996094 171.488281 174.933594 171.460938 174.875 171.402344 C 171.753906 167.921875 168.304688 165.214844 164.558594 163.433594 C 162.625 158.941406 162.476562 155.433594 163.425781 152.339844 C 164.410156 149.070312 166.726562 146.097656 170 143.242188 C 171.992188 141.546875 170.652344 138.246094 168.035156 138.425781 Z M 168.035156 138.425781 " fill-opacity="1" fill-rule="nonzero"/><path fill="#d5ad60" d="M 176.003906 75.269531 C 174.609375 75.328125 173.476562 76.457031 173.390625 77.855469 C 172.972656 83.980469 170.027344 87.3125 165.984375 88.796875 C 161.941406 90.285156 156.527344 89.691406 151.503906 86.507812 C 150.253906 85.675781 148.558594 86.003906 147.726562 87.222656 C 146.894531 88.46875 147.222656 90.164062 148.441406 91 C 148.5 91.027344 148.558594 91.058594 148.589844 91.085938 C 154.835938 95.042969 161.96875 96.023438 167.886719 93.851562 C 173.804688 91.683594 178.265625 86.03125 178.832031 78.183594 C 178.949219 76.695312 177.847656 75.359375 176.332031 75.238281 C 176.242188 75.238281 176.125 75.238281 176.003906 75.269531 Z M 176.003906 75.269531 " fill-opacity="1" fill-rule="nonzero"/><g clip-path="url(#df2633dea2)"><g clip-path="url(#676b5fbcd4)"><g clip-path="url(#35a6eb7f10)"><path fill="#ffffff" d="M 189.996094 180.304688 C 189.945312 180.320312 189.910156 180.351562 189.886719 180.398438 C 189.867188 180.445312 189.867188 180.496094 189.886719 180.542969 C 190.710938 182.34375 190.949219 185.167969 190.390625 188.210938 C 189.832031 191.257812 188.605469 193.808594 187.191406 195.199219 C 187.15625 195.238281 187.136719 195.28125 187.140625 195.335938 C 187.144531 195.390625 187.167969 195.433594 187.210938 195.464844 L 190.046875 197.617188 C 190.128906 197.679688 190.207031 197.675781 190.28125 197.597656 C 190.589844 197.257812 190.878906 196.90625 191.144531 196.535156 C 192.585938 194.546875 193.675781 191.839844 194.214844 188.914062 C 194.75 185.988281 194.695312 183.074219 194.054688 180.703125 C 193.9375 180.261719 193.792969 179.828125 193.625 179.402344 C 193.585938 179.304688 193.515625 179.269531 193.414062 179.300781 Z M 189.996094 180.304688 " fill-opacity="1" fill-rule="nonzero"/></g></g></g><g clip-path="url(#d036e34778)"><g clip-path="url(#373ffc83bd)"><g clip-path="url(#38792b75a3)"><path fill="#ffffff" d="M 180.773438 54.128906 C 180.75 54.179688 180.75 54.226562 180.769531 54.277344 C 180.789062 54.324219 180.824219 54.359375 180.871094 54.375 C 182.742188 55.027344 184.945312 56.808594 186.757812 59.320312 C 188.570312 61.832031 189.5625 64.484375 189.589844 66.460938 C 189.589844 66.515625 189.613281 66.558594 189.652344 66.59375 C 189.691406 66.628906 189.738281 66.640625 189.792969 66.632812 L 193.308594 66.074219 C 193.414062 66.058594 193.460938 65.996094 193.457031 65.890625 C 193.425781 65.433594 193.367188 64.980469 193.285156 64.53125 C 192.847656 62.117188 191.648438 59.457031 189.910156 57.046875 C 188.167969 54.632812 186.023438 52.65625 183.871094 51.476562 C 183.472656 51.257812 183.058594 51.0625 182.636719 50.890625 C 182.535156 50.847656 182.464844 50.875 182.414062 50.96875 Z M 180.773438 54.128906 " fill-opacity="1" fill-rule="nonzero"/></g></g></g><g fill="#232325" fill-opacity="1"><g transform="translate(42.604161, 291.971534)"><g><path d="M 11.28125 -53.53125 L 11.28125 -52.859375 C 11.03125 -52.859375 10.660156 -52.515625 10.171875 -51.828125 C 9.691406 -51.140625 9.453125 -49.523438 9.453125 -46.984375 L 9.453125 -6.5625 C 9.453125 -4.070312 9.691406 -2.46875 10.171875 -1.75 C 10.660156 -1.039062 11.03125 -0.6875 11.28125 -0.6875 L 11.28125 0 L 2.28125 0 L 2.28125 -0.6875 C 2.539062 -0.6875 2.898438 -1.039062 3.359375 -1.75 C 3.816406 -2.46875 4.046875 -4.070312 4.046875 -6.5625 L 4.046875 -46.984375 C 4.046875 -49.523438 3.816406 -51.140625 3.359375 -51.828125 C 2.898438 -52.515625 2.539062 -52.859375 2.28125 -52.859375 L 2.28125 -53.53125 Z M 11.28125 -53.53125 "/></g></g></g><g fill="#232325" fill-opacity="1"><g transform="translate(59.913736, 291.971534)"><g><path d="M 45.453125 -41.109375 L 45.453125 -7.546875 L 51.40625 0 L 44.46875 0 L 8.015625 -46.296875 L 8.015625 -12.5 C 8.015625 -8.945312 8.351562 -6.085938 9.03125 -3.921875 C 9.71875 -1.765625 10.34375 -0.6875 10.90625 -0.6875 L 10.90625 0 L 4.421875 0 L 4.421875 -0.6875 C 4.984375 -0.6875 5.609375 -1.765625 6.296875 -3.921875 C 6.984375 -6.085938 7.328125 -8.945312 7.328125 -12.5 L 7.328125 -47.125 L 2.28125 -53.53125 L 9.234375 -53.53125 L 44.765625 -8.390625 L 44.765625 -41.109375 C 44.765625 -44.671875 44.421875 -47.519531 43.734375 -49.65625 C 43.046875 -51.789062 42.425781 -52.859375 41.875 -52.859375 L 41.875 -53.53125 L 48.359375 -53.53125 L 48.359375 -52.859375 C 47.796875 -52.859375 47.171875 -51.789062 46.484375 -49.65625 C 45.796875 -47.519531 45.453125 -44.671875 45.453125 -41.109375 Z M 45.453125 -41.109375 "/></g></g></g><g fill="#232325" fill-opacity="1"><g transform="translate(117.330133, 291.971534)"><g><path d="M 11.28125 -0.6875 L 11.28125 0 L 2.28125 0 L 2.28125 -0.6875 C 2.539062 -0.6875 2.898438 -1.039062 3.359375 -1.75 C 3.816406 -2.46875 4.046875 -4.070312 4.046875 -6.5625 L 4.046875 -46.984375 C 4.046875 -49.523438 3.816406 -51.140625 3.359375 -51.828125 C 2.898438 -52.515625 2.539062 -52.859375 2.28125 -52.859375 L 2.28125 -53.53125 L 35.390625 -53.53125 L 35.390625 -47.0625 L 34.703125 -47.0625 C 32.359375 -48.53125 29.96875 -49.757812 27.53125 -50.75 C 25.09375 -51.738281 21.96875 -52.441406 18.15625 -52.859375 L 9.53125 -52.859375 L 9.53125 -30.4375 C 13.5 -30.476562 16.535156 -30.726562 18.640625 -31.1875 C 20.753906 -31.644531 22.203125 -32.113281 22.984375 -32.59375 C 23.773438 -33.082031 24.171875 -33.328125 24.171875 -33.328125 L 24.859375 -33.328125 L 24.859375 -26.84375 L 24.171875 -26.84375 C 24.171875 -26.84375 23.773438 -27.082031 22.984375 -27.5625 C 22.203125 -28.050781 20.753906 -28.535156 18.640625 -29.015625 C 16.535156 -29.503906 13.5 -29.75 9.53125 -29.75 L 9.53125 -6.5625 C 9.53125 -4.070312 9.769531 -2.46875 10.25 -1.75 C 10.738281 -1.039062 11.082031 -0.6875 11.28125 -0.6875 Z M 11.28125 -0.6875 "/></g></g></g><g fill="#232325" fill-opacity="1"><g transform="translate(158.734291, 291.971534)"><g><path d="M 4.046875 -20.140625 L 4.046875 -46.984375 C 4.046875 -49.523438 3.816406 -51.140625 3.359375 -51.828125 C 2.898438 -52.515625 2.539062 -52.859375 2.28125 -52.859375 L 2.28125 -53.53125 L 11.21875 -53.53125 L 11.21875 -52.859375 C 11.007812 -52.859375 10.660156 -52.515625 10.171875 -51.828125 C 9.691406 -51.140625 9.453125 -49.523438 9.453125 -46.984375 L 9.453125 -20.140625 C 9.453125 -20.140625 9.453125 -19.664062 9.453125 -18.71875 C 9.453125 -17.78125 9.550781 -16.5625 9.75 -15.0625 C 9.957031 -13.5625 10.328125 -11.972656 10.859375 -10.296875 C 11.398438 -8.617188 12.191406 -7.03125 13.234375 -5.53125 C 14.273438 -4.03125 15.660156 -2.804688 17.390625 -1.859375 C 19.117188 -0.921875 21.28125 -0.453125 23.875 -0.453125 C 25.75 -0.453125 27.738281 -0.71875 29.84375 -1.25 C 31.957031 -1.789062 33.957031 -2.742188 35.84375 -4.109375 C 37.726562 -5.484375 39.253906 -7.46875 40.421875 -10.0625 C 41.585938 -12.65625 42.171875 -16.015625 42.171875 -20.140625 L 42.171875 -41.109375 C 42.171875 -44.671875 41.828125 -47.519531 41.140625 -49.65625 C 40.453125 -51.789062 39.832031 -52.859375 39.28125 -52.859375 L 39.28125 -53.53125 L 45.765625 -53.53125 L 45.765625 -52.859375 C 45.203125 -52.859375 44.578125 -51.789062 43.890625 -49.65625 C 43.203125 -47.519531 42.859375 -44.671875 42.859375 -41.109375 L 42.859375 -20.140625 C 42.859375 -16.328125 42.375 -13.160156 41.40625 -10.640625 C 40.445312 -8.117188 39.191406 -6.109375 37.640625 -4.609375 C 36.085938 -3.109375 34.457031 -2.003906 32.75 -1.296875 C 31.050781 -0.585938 29.453125 -0.117188 27.953125 0.109375 C 26.453125 0.335938 25.269531 0.453125 24.40625 0.453125 C 23.539062 0.453125 22.28125 0.320312 20.625 0.0625 C 18.976562 -0.1875 17.210938 -0.703125 15.328125 -1.484375 C 13.441406 -2.273438 11.632812 -3.421875 9.90625 -4.921875 C 8.1875 -6.421875 6.78125 -8.398438 5.6875 -10.859375 C 4.59375 -13.328125 4.046875 -16.421875 4.046875 -20.140625 Z M 4.046875 -20.140625 "/></g></g></g><g fill="#232325" fill-opacity="1"><g transform="translate(210.508284, 291.971534)"><g><path d="M 33.703125 -44.46875 C 35.128906 -46.90625 35.96875 -48.910156 36.21875 -50.484375 C 36.476562 -52.066406 36.429688 -52.859375 36.078125 -52.859375 L 25.546875 -52.859375 C 21.734375 -52.441406 18.601562 -51.738281 16.15625 -50.75 C 13.71875 -49.757812 11.332031 -48.53125 9 -47.0625 L 8.3125 -47.0625 L 8.3125 -53.53125 L 47.4375 -53.53125 L 47.4375 -52.859375 C 46.875 -52.859375 46.222656 -52.460938 45.484375 -51.671875 C 44.753906 -50.878906 43.957031 -49.847656 43.09375 -48.578125 L 40.796875 -45.21875 L 39.125 -42.78125 L 16.09375 -9.078125 C 14.519531 -6.273438 13.628906 -4.175781 13.421875 -2.78125 C 13.222656 -1.382812 13.273438 -0.6875 13.578125 -0.6875 L 26.3125 -0.6875 C 30.125 -1.09375 33.25 -1.789062 35.6875 -2.78125 C 38.132812 -3.769531 40.523438 -4.976562 42.859375 -6.40625 L 43.46875 -6.40625 L 43.46875 0 L 2.28125 0 L 2.28125 -0.6875 C 2.84375 -0.6875 3.882812 -1.664062 5.40625 -3.625 C 6.9375 -5.582031 8.664062 -7.957031 10.59375 -10.75 Z M 33.703125 -44.46875 "/></g></g></g><g fill="#232325" fill-opacity="1"><g transform="translate(263.959751, 291.971534)"><g><path d="M 11.28125 -53.53125 L 11.28125 -52.859375 C 11.03125 -52.859375 10.660156 -52.515625 10.171875 -51.828125 C 9.691406 -51.140625 9.453125 -49.523438 9.453125 -46.984375 L 9.453125 -6.5625 C 9.453125 -4.070312 9.691406 -2.46875 10.171875 -1.75 C 10.660156 -1.039062 11.03125 -0.6875 11.28125 -0.6875 L 11.28125 0 L 2.28125 0 L 2.28125 -0.6875 C 2.539062 -0.6875 2.898438 -1.039062 3.359375 -1.75 C 3.816406 -2.46875 4.046875 -4.070312 4.046875 -6.5625 L 4.046875 -46.984375 C 4.046875 -49.523438 3.816406 -51.140625 3.359375 -51.828125 C 2.898438 -52.515625 2.539062 -52.859375 2.28125 -52.859375 L 2.28125 -53.53125 Z M 11.28125 -53.53125 "/></g></g></g><g fill="#232325" fill-opacity="1"><g transform="translate(281.269327, 291.971534)"><g><path d="M 22.109375 -35.84375 L 37.59375 -8.3125 C 39.226562 -5.519531 40.523438 -3.550781 41.484375 -2.40625 C 42.453125 -1.257812 43.164062 -0.6875 43.625 -0.6875 L 43.625 0 L 34.09375 0 L 34.09375 -0.6875 C 34.5 -0.6875 34.632812 -1.078125 34.5 -1.859375 C 34.375 -2.648438 33.578125 -4.34375 32.109375 -6.9375 L 18.078125 -31.796875 L 9.453125 -23.265625 L 9.453125 -6.5625 C 9.453125 -4.070312 9.691406 -2.46875 10.171875 -1.75 C 10.660156 -1.039062 11.03125 -0.6875 11.28125 -0.6875 L 11.28125 0 L 2.28125 0 L 2.28125 -0.6875 C 2.539062 -0.6875 2.898438 -1.039062 3.359375 -1.75 C 3.816406 -2.46875 4.046875 -4.070312 4.046875 -6.5625 L 4.046875 -46.984375 C 4.046875 -49.523438 3.816406 -51.140625 3.359375 -51.828125 C 2.898438 -52.515625 2.539062 -52.859375 2.28125 -52.859375 L 2.28125 -53.53125 L 11.28125 -53.53125 L 11.28125 -52.859375 C 11.03125 -52.859375 10.660156 -52.515625 10.171875 -51.828125 C 9.691406 -51.140625 9.453125 -49.523438 9.453125 -46.984375 L 9.453125 -24.171875 L 30.046875 -44.6875 C 32.585938 -47.28125 34.148438 -49.289062 34.734375 -50.71875 C 35.316406 -52.144531 34.441406 -52.859375 32.109375 -52.859375 L 32.109375 -53.53125 L 44.3125 -53.53125 L 44.3125 -52.859375 C 42.9375 -52.859375 41.394531 -52.382812 39.6875 -51.4375 C 37.988281 -50.5 36.328125 -49.351562 34.703125 -48 C 33.078125 -46.65625 31.628906 -45.347656 30.359375 -44.078125 Z M 22.109375 -35.84375 "/></g></g></g><g fill="#232325" fill-opacity="1"><g transform="translate(93.50256, 324.790998)"><g><path d="M 11.25 -15.5 L 11.25 -13.859375 L 7.03125 -13.859375 L 7.03125 0 L 5 0 L 5 -13.859375 L 0.75 -13.859375 L 0.75 -15.5 Z M 11.25 -15.5 "/></g></g></g><g fill="#232325" fill-opacity="1"><g transform="translate(110.149314, 324.790998)"><g><path d="M 3.734375 -13.859375 L 3.734375 -8.671875 L 9.390625 -8.671875 L 9.390625 -7 L 3.734375 -7 L 3.734375 -1.671875 L 10.046875 -1.671875 L 10.046875 0 L 1.71875 0 L 1.71875 -15.515625 L 10.046875 -15.515625 L 10.046875 -13.859375 Z M 3.734375 -13.859375 "/></g></g></g><g fill="#232325" fill-opacity="1"><g transform="translate(126.173973, 324.790998)"><g><path d="M 0.953125 -7.765625 C 0.953125 -9.273438 1.289062 -10.632812 1.96875 -11.84375 C 2.65625 -13.050781 3.585938 -13.992188 4.765625 -14.671875 C 5.941406 -15.359375 7.25 -15.703125 8.6875 -15.703125 C 10.382812 -15.703125 11.863281 -15.289062 13.125 -14.46875 C 14.382812 -13.65625 15.300781 -12.5 15.875 -11 L 13.453125 -11 C 13.023438 -11.9375 12.40625 -12.65625 11.59375 -13.15625 C 10.789062 -13.664062 9.820312 -13.921875 8.6875 -13.921875 C 7.613281 -13.921875 6.644531 -13.664062 5.78125 -13.15625 C 4.914062 -12.65625 4.238281 -11.941406 3.75 -11.015625 C 3.269531 -10.085938 3.03125 -9.003906 3.03125 -7.765625 C 3.03125 -6.535156 3.269531 -5.457031 3.75 -4.53125 C 4.238281 -3.601562 4.914062 -2.882812 5.78125 -2.375 C 6.644531 -1.875 7.613281 -1.625 8.6875 -1.625 C 9.820312 -1.625 10.789062 -1.867188 11.59375 -2.359375 C 12.40625 -2.859375 13.023438 -3.578125 13.453125 -4.515625 L 15.875 -4.515625 C 15.300781 -3.035156 14.382812 -1.890625 13.125 -1.078125 C 11.863281 -0.265625 10.382812 0.140625 8.6875 0.140625 C 7.25 0.140625 5.941406 -0.195312 4.765625 -0.875 C 3.585938 -1.550781 2.65625 -2.488281 1.96875 -3.6875 C 1.289062 -4.882812 0.953125 -6.242188 0.953125 -7.765625 Z M 0.953125 -7.765625 "/></g></g></g><g fill="#232325" fill-opacity="1"><g transform="translate(147.952946, 324.790998)"><g><path d="M 13.65625 -15.5 L 13.65625 0 L 11.625 0 L 11.625 -7.03125 L 3.734375 -7.03125 L 3.734375 0 L 1.71875 0 L 1.71875 -15.5 L 3.734375 -15.5 L 3.734375 -8.6875 L 11.625 -8.6875 L 11.625 -15.5 Z M 13.65625 -15.5 "/></g></g></g><g fill="#232325" fill-opacity="1"><g transform="translate(167.954534, 324.790998)"><g><path d="M 13.890625 0 L 11.875 0 L 3.734375 -12.34375 L 3.734375 0 L 1.71875 0 L 1.71875 -15.515625 L 3.734375 -15.515625 L 11.875 -3.203125 L 11.875 -15.515625 L 13.890625 -15.515625 Z M 13.890625 0 "/></g></g></g><g fill="#232325" fill-opacity="1"><g transform="translate(188.200518, 324.790998)"><g><path d="M 8.734375 0.15625 C 7.296875 0.15625 5.984375 -0.179688 4.796875 -0.859375 C 3.617188 -1.535156 2.679688 -2.472656 1.984375 -3.671875 C 1.296875 -4.878906 0.953125 -6.242188 0.953125 -7.765625 C 0.953125 -9.273438 1.296875 -10.632812 1.984375 -11.84375 C 2.679688 -13.050781 3.617188 -13.988281 4.796875 -14.65625 C 5.984375 -15.332031 7.296875 -15.671875 8.734375 -15.671875 C 10.191406 -15.671875 11.507812 -15.332031 12.6875 -14.65625 C 13.875 -13.988281 14.804688 -13.050781 15.484375 -11.84375 C 16.171875 -10.644531 16.515625 -9.285156 16.515625 -7.765625 C 16.515625 -6.234375 16.171875 -4.867188 15.484375 -3.671875 C 14.804688 -2.472656 13.875 -1.535156 12.6875 -0.859375 C 11.507812 -0.179688 10.191406 0.15625 8.734375 0.15625 Z M 8.734375 -1.59375 C 9.816406 -1.59375 10.789062 -1.84375 11.65625 -2.34375 C 12.53125 -2.851562 13.210938 -3.578125 13.703125 -4.515625 C 14.203125 -5.453125 14.453125 -6.535156 14.453125 -7.765625 C 14.453125 -9.003906 14.203125 -10.085938 13.703125 -11.015625 C 13.210938 -11.941406 12.535156 -12.65625 11.671875 -13.15625 C 10.816406 -13.664062 9.835938 -13.921875 8.734375 -13.921875 C 7.640625 -13.921875 6.660156 -13.664062 5.796875 -13.15625 C 4.941406 -12.65625 4.265625 -11.941406 3.765625 -11.015625 C 3.273438 -10.085938 3.03125 -9.003906 3.03125 -7.765625 C 3.03125 -6.535156 3.273438 -5.453125 3.765625 -4.515625 C 4.265625 -3.578125 4.945312 -2.851562 5.8125 -2.34375 C 6.675781 -1.84375 7.648438 -1.59375 8.734375 -1.59375 Z M 8.734375 -1.59375 "/></g></g></g><g fill="#232325" fill-opacity="1"><g transform="translate(210.290539, 324.790998)"><g><path d="M 3.734375 -1.640625 L 9.15625 -1.640625 L 9.15625 0 L 1.71875 0 L 1.71875 -15.5 L 3.734375 -15.5 Z M 3.734375 -1.640625 "/></g></g></g><g fill="#232325" fill-opacity="1"><g transform="translate(224.515602, 324.790998)"><g><path d="M 8.734375 0.15625 C 7.296875 0.15625 5.984375 -0.179688 4.796875 -0.859375 C 3.617188 -1.535156 2.679688 -2.472656 1.984375 -3.671875 C 1.296875 -4.878906 0.953125 -6.242188 0.953125 -7.765625 C 0.953125 -9.273438 1.296875 -10.632812 1.984375 -11.84375 C 2.679688 -13.050781 3.617188 -13.988281 4.796875 -14.65625 C 5.984375 -15.332031 7.296875 -15.671875 8.734375 -15.671875 C 10.191406 -15.671875 11.507812 -15.332031 12.6875 -14.65625 C 13.875 -13.988281 14.804688 -13.050781 15.484375 -11.84375 C 16.171875 -10.644531 16.515625 -9.285156 16.515625 -7.765625 C 16.515625 -6.234375 16.171875 -4.867188 15.484375 -3.671875 C 14.804688 -2.472656 13.875 -1.535156 12.6875 -0.859375 C 11.507812 -0.179688 10.191406 0.15625 8.734375 0.15625 Z M 8.734375 -1.59375 C 9.816406 -1.59375 10.789062 -1.84375 11.65625 -2.34375 C 12.53125 -2.851562 13.210938 -3.578125 13.703125 -4.515625 C 14.203125 -5.453125 14.453125 -6.535156 14.453125 -7.765625 C 14.453125 -9.003906 14.203125 -10.085938 13.703125 -11.015625 C 13.210938 -11.941406 12.535156 -12.65625 11.671875 -13.15625 C 10.816406 -13.664062 9.835938 -13.921875 8.734375 -13.921875 C 7.640625 -13.921875 6.660156 -13.664062 5.796875 -13.15625 C 4.941406 -12.65625 4.265625 -11.941406 3.765625 -11.015625 C 3.273438 -10.085938 3.03125 -9.003906 3.03125 -7.765625 C 3.03125 -6.535156 3.273438 -5.453125 3.765625 -4.515625 C 4.265625 -3.578125 4.945312 -2.851562 5.8125 -2.34375 C 6.675781 -1.84375 7.648438 -1.59375 8.734375 -1.59375 Z M 8.734375 -1.59375 "/></g></g></g><g fill="#232325" fill-opacity="1"><g transform="translate(246.605623, 324.790998)"><g><path d="M 13.453125 -11 C 13.023438 -11.90625 12.398438 -12.609375 11.578125 -13.109375 C 10.765625 -13.609375 9.816406 -13.859375 8.734375 -13.859375 C 7.648438 -13.859375 6.675781 -13.609375 5.8125 -13.109375 C 4.945312 -12.609375 4.265625 -11.894531 3.765625 -10.96875 C 3.273438 -10.039062 3.03125 -8.972656 3.03125 -7.765625 C 3.03125 -6.546875 3.273438 -5.472656 3.765625 -4.546875 C 4.265625 -3.628906 4.945312 -2.921875 5.8125 -2.421875 C 6.675781 -1.929688 7.648438 -1.6875 8.734375 -1.6875 C 10.242188 -1.6875 11.488281 -2.140625 12.46875 -3.046875 C 13.445312 -3.953125 14.019531 -5.175781 14.1875 -6.71875 L 8 -6.71875 L 8 -8.359375 L 16.34375 -8.359375 L 16.34375 -6.796875 C 16.226562 -5.523438 15.828125 -4.359375 15.140625 -3.296875 C 14.460938 -2.242188 13.566406 -1.40625 12.453125 -0.78125 C 11.335938 -0.164062 10.097656 0.140625 8.734375 0.140625 C 7.296875 0.140625 5.984375 -0.195312 4.796875 -0.875 C 3.617188 -1.550781 2.679688 -2.488281 1.984375 -3.6875 C 1.296875 -4.882812 0.953125 -6.242188 0.953125 -7.765625 C 0.953125 -9.273438 1.296875 -10.632812 1.984375 -11.84375 C 2.679688 -13.050781 3.617188 -13.988281 4.796875 -14.65625 C 5.984375 -15.332031 7.296875 -15.671875 8.734375 -15.671875 C 10.378906 -15.671875 11.835938 -15.265625 13.109375 -14.453125 C 14.378906 -13.640625 15.300781 -12.488281 15.875 -11 Z M 13.453125 -11 "/></g></g></g><g fill="#232325" fill-opacity="1"><g transform="translate(268.517899, 324.790998)"><g><path d="M 12.5625 -15.5 L 7.515625 -5.84375 L 7.515625 0 L 5.484375 0 L 5.484375 -5.84375 L 0.421875 -15.5 L 2.671875 -15.5 L 6.5 -7.65625 L 10.3125 -15.5 Z M 12.5625 -15.5 "/></g></g></g></svg>